<svg width="31" height="31" viewBox="0 0 31 31" fill="none" xmlns="http://www.w3.org/2000/svg">
<path d="M15.9126 2.50269C16.8588 2.50269 17.7156 3.02822 18.1887 3.80402C18.4189 4.1794 18.5724 4.64238 18.534 5.13038C18.5084 5.50576 18.6235 5.88115 18.8281 6.23151C19.4803 7.2951 20.9253 7.69551 22.0506 7.09489C23.3166 6.36915 24.915 6.8071 25.6439 8.04586L26.5007 9.52238C27.2423 10.7611 26.8331 12.3503 25.5544 13.0635C24.4674 13.7017 24.0838 15.1156 24.736 16.1917C24.9406 16.5296 25.1708 16.8174 25.5288 16.9925C25.9764 17.2303 26.3216 17.6057 26.5646 17.981C27.0377 18.7568 26.9994 19.7078 26.539 20.5462L25.6439 22.0477C25.1708 22.8485 24.2884 23.349 23.3805 23.349C22.9329 23.349 22.4342 23.2239 22.025 22.9737C21.6925 22.7609 21.3089 22.6859 20.8997 22.6859C19.6337 22.6859 18.5724 23.7244 18.534 24.9632C18.534 26.4022 17.3576 27.5283 15.887 27.5283H14.1479C12.6645 27.5283 11.4881 26.4022 11.4881 24.9632C11.4625 23.7244 10.4011 22.6859 9.13515 22.6859C8.71316 22.6859 8.32953 22.7609 8.00984 22.9737C7.60064 23.2239 7.08914 23.349 6.65436 23.349C5.73366 23.349 4.85131 22.8485 4.37817 22.0477L3.49583 20.5462C3.02269 19.7328 2.99712 18.7568 3.47026 17.981C3.67486 17.6057 4.05848 17.2303 4.49326 16.9925C4.85131 16.8174 5.08149 16.5296 5.29888 16.1917C5.93826 15.1156 5.55463 13.7017 4.46769 13.0635C3.20172 12.3503 2.79252 10.7611 3.52141 9.52238L4.37817 8.04586C5.11985 6.8071 6.70551 6.36915 7.98427 7.09489C9.09679 7.69551 10.5418 7.2951 11.1939 6.23151C11.3985 5.88115 11.5136 5.50576 11.4881 5.13038C11.4625 4.64238 11.6031 4.1794 11.8461 3.80402C12.3193 3.02822 13.176 2.52771 14.1095 2.50269H15.9126ZM15.0302 11.4869C13.0226 11.4869 11.3985 13.0635 11.3985 15.028C11.3985 16.9925 13.0226 18.5566 15.0302 18.5566C17.0379 18.5566 18.6235 16.9925 18.6235 15.028C18.6235 13.0635 17.0379 11.4869 15.0302 11.4869Z" fill="#EFF2F4"/>
</svg>
