<svg width="24" height="26" viewBox="0 0 24 26" fill="none" xmlns="http://www.w3.org/2000/svg">
<path d="M12.9126 0.502686C13.8588 0.502686 14.7156 1.02822 15.1887 1.80402C15.4189 2.1794 15.5724 2.64238 15.534 3.13038C15.5084 3.50576 15.6235 3.88115 15.8281 4.23151C16.4803 5.2951 17.9253 5.69551 19.0506 5.09489C20.3166 4.36915 21.915 4.8071 22.6439 6.04586L23.5007 7.52238C24.2423 8.76115 23.8331 10.3503 22.5544 11.0635C21.4674 11.7017 21.0838 13.1156 21.736 14.1917C21.9406 14.5296 22.1708 14.8174 22.5288 14.9925C22.9764 15.2303 23.3216 15.6057 23.5646 15.981C24.0377 16.7568 23.9994 17.7078 23.539 18.5462L22.6439 20.0477C22.1708 20.8485 21.2884 21.349 20.3805 21.349C19.9329 21.349 19.4342 21.2239 19.025 20.9737C18.6925 20.7609 18.3089 20.6859 17.8997 20.6859C16.6337 20.6859 15.5724 21.7244 15.534 22.9632C15.534 24.4022 14.3576 25.5283 12.887 25.5283H11.1479C9.66452 25.5283 8.48806 24.4022 8.48806 22.9632C8.46249 21.7244 7.40112 20.6859 6.13515 20.6859C5.71316 20.6859 5.32953 20.7609 5.00984 20.9737C4.60064 21.2239 4.08914 21.349 3.65436 21.349C2.73366 21.349 1.85131 20.8485 1.37817 20.0477L0.495831 18.5462C0.0226913 17.7328 -0.00288379 16.7568 0.470256 15.981C0.674857 15.6057 1.05848 15.2303 1.49326 14.9925C1.85131 14.8174 2.08149 14.5296 2.29888 14.1917C2.93826 13.1156 2.55463 11.7017 1.46769 11.0635C0.201717 10.3503 -0.207485 8.76115 0.521407 7.52238L1.37817 6.04586C2.11985 4.8071 3.70551 4.36915 4.98427 5.09489C6.09679 5.69551 7.54178 5.2951 8.19395 4.23151C8.39855 3.88115 8.51364 3.50576 8.48806 3.13038C8.46249 2.64238 8.60315 2.1794 8.84611 1.80402C9.31925 1.02822 10.176 0.527711 11.1095 0.502686H12.9126ZM12.0302 9.48689C10.0226 9.48689 8.39855 11.0635 8.39855 13.028C8.39855 14.9925 10.0226 16.5566 12.0302 16.5566C14.0379 16.5566 15.6235 14.9925 15.6235 13.028C15.6235 11.0635 14.0379 9.48689 12.0302 9.48689Z" fill="#FFC2C2"/>
</svg>
