<svg width="163" height="119" viewBox="0 0 163 119" fill="none" xmlns="http://www.w3.org/2000/svg">
<path d="M158.927 45.4875C157.783 43.3034 156.51 41.1714 155.112 39.1L137.114 81.2879C136.427 82.8641 135.429 84.3255 134.163 85.6071C138.994 85.1944 143.65 83.8244 147.767 81.604C151.884 79.3836 155.351 76.3726 157.897 72.806C160.444 69.2393 162.001 65.2133 162.448 61.0419C162.895 56.8705 162.22 52.6663 160.474 48.7573C159.995 47.644 159.48 46.5612 158.927 45.4875Z" fill="white"/>
<path d="M55.6215 7.46666C45.1191 10.6925 35.479 15.7136 27.2783 22.2295C19.0775 28.7455 12.4847 36.6222 7.89457 45.3882C3.30442 54.1542 0.81128 63.6292 0.564393 73.2461C0.317506 82.863 2.32195 92.424 6.45773 101.357C6.56701 101.548 6.64104 101.737 6.75031 101.929C8.94751 106.456 12.5248 110.386 17.1022 113.3C21.6796 116.214 27.0862 118.005 32.748 118.481C38.4097 118.957 44.1152 118.101 49.2585 116.004C54.4018 113.907 58.7908 110.647 61.9596 106.57C68.5871 97.9559 78.1013 91.2902 89.2328 87.4625C89.5853 87.3408 89.9378 87.2496 90.2904 87.137C91.5436 84.6422 93.4086 82.4114 95.757 80.5983C98.1053 78.7851 100.881 77.4327 103.893 76.6342C103.82 74.3435 104.364 72.0694 105.483 69.9912L133.331 17.9574C122.393 10.8023 109.569 6.099 96.0073 4.26823C82.446 2.43746 68.5701 3.53638 55.6215 7.46666ZM34.013 86.8542C31.2243 86.8542 28.4981 86.1406 26.1794 84.8037C23.8606 83.4668 22.0534 81.5667 20.9861 79.3435C19.9189 77.1203 19.6397 74.674 20.1838 72.3139C20.7278 69.9538 22.0707 67.7859 24.0427 66.0844C26.0146 64.3828 28.527 63.2241 31.2622 62.7546C33.9974 62.2852 36.8324 62.5261 39.4089 63.447C41.9854 64.3678 44.1875 65.9273 45.7369 67.9281C47.2862 69.9289 48.1132 72.2812 48.1132 74.6875C48.1132 77.9143 46.6276 81.0089 43.9833 83.2906C41.339 85.5723 37.7526 86.8542 34.013 86.8542ZM51.6382 51.875C48.8495 51.875 46.1234 51.1614 43.8046 49.8245C41.4858 48.4876 39.6786 46.5875 38.6114 44.3643C37.5442 42.1411 37.2649 39.6948 37.809 37.3347C38.353 34.9746 39.696 32.8067 41.6679 31.1052C43.6398 29.4037 46.1523 28.2449 48.8874 27.7754C51.6226 27.306 54.4577 27.5469 57.0341 28.4678C59.6106 29.3887 61.8128 30.9481 63.3621 32.9489C64.9114 34.9497 65.7384 37.302 65.7384 39.7083C65.7384 42.9351 64.2529 46.0298 61.6086 48.3115C58.9643 50.5931 55.3778 51.875 51.6382 51.875ZM93.9388 41.2292C91.15 41.2292 88.4239 40.5156 86.1051 39.1787C83.7864 37.8418 81.9791 35.9416 80.9119 33.7185C79.8447 31.4953 79.5655 29.049 80.1095 26.6889C80.6536 24.3288 81.9965 22.1609 83.9684 20.4594C85.9404 18.7578 88.4528 17.5991 91.188 17.1296C93.9231 16.6601 96.7582 16.9011 99.3347 17.822C101.911 18.7428 104.113 20.3023 105.663 22.3031C107.212 24.3039 108.039 26.6562 108.039 29.0625C108.039 32.2893 106.553 35.3839 103.909 37.6656C101.265 39.9473 97.6784 41.2292 93.9388 41.2292Z" fill="white"/>
<path d="M157.312 0.625935C155.748 0.0653964 153.993 0.0494349 152.416 0.5814C150.838 1.11336 149.561 2.15189 148.852 3.47902L111.895 72.5401C111.044 74.1287 110.769 75.902 111.106 77.6278C111.442 79.3537 112.375 80.9517 113.781 82.2126C110.346 81.5173 106.736 81.8973 103.595 83.285C100.454 84.6727 97.9864 86.9778 96.6319 89.7894C90.9249 101.682 99.9525 106.899 94.2419 118.792C100.752 118.164 106.954 116.061 112.216 112.695C117.479 109.329 121.615 104.821 124.205 99.6291C125.424 97.0725 125.654 94.2444 124.86 91.566C124.066 88.8876 122.291 86.5021 119.799 84.7645C122.052 85.0152 124.338 84.5991 126.282 83.5843C128.227 82.5695 129.715 81.0158 130.504 79.177L160.96 7.78602C161.539 6.41685 161.482 4.90788 160.802 3.57385C160.123 2.23983 158.872 1.18377 157.312 0.625935Z" fill="white"/>
</svg>
