<svg width="120" height="122" viewBox="0 0 120 122" fill="none" xmlns="http://www.w3.org/2000/svg">
<path d="M118.728 57.8611L100.868 39.6981C99.166 37.9706 99.6964 36.1235 102.041 35.5868C102.041 35.5868 103.978 35.1427 106.363 32.7174C111.485 27.513 111.48 19.0634 106.363 13.8663C101.24 8.65945 92.9405 8.65945 87.8166 13.8663C85.4311 16.2916 84.9967 18.2582 84.9967 18.2582C84.4687 20.6469 82.6471 21.1813 80.9504 19.4489L63.0899 1.30056C61.3908 -0.429369 58.6068 -0.429369 56.9077 1.30056L39.0496 19.4538C37.3529 21.1862 37.8784 23.0381 40.2232 23.5724C40.2232 23.5724 42.1624 24.0165 44.5455 26.4369C49.6598 31.6414 49.667 40.086 44.5455 45.2953C39.4264 50.4997 31.1154 50.4949 26.0011 45.2953C23.6179 42.8676 23.1811 40.8985 23.1811 40.8985C22.6555 38.5123 20.8316 37.9779 19.1324 39.7054L1.27437 57.8635C-0.424791 59.591 -0.424791 62.4189 1.27437 64.1439L19.1324 82.3021C20.8316 84.0295 20.3036 85.8815 17.9588 86.4183C17.9588 86.4183 16.0221 86.8648 13.6365 89.2876C8.51503 94.4969 8.51503 102.937 13.6365 108.141C18.7556 113.346 27.0595 113.35 32.181 108.141C34.5689 105.716 35.0009 103.749 35.0009 103.749C35.5289 101.361 37.3505 100.826 39.0472 102.561L56.9077 120.709C58.6068 122.439 61.3908 122.439 63.0899 120.709L80.9528 102.556C82.6519 100.829 82.1216 98.9718 79.7792 98.4399C79.7792 98.4399 77.8376 97.9958 75.4545 95.5754C70.3306 90.3661 70.333 81.9263 75.4545 76.717C80.5736 71.5126 88.8774 71.5053 93.9989 76.717C96.3845 79.1423 96.8165 81.1138 96.8165 81.1138C97.3468 83.5025 99.166 84.0393 100.868 82.3118L118.728 64.1488C120.425 62.4165 120.425 59.5886 118.728 57.8611Z" fill="white"/>
</svg>
