<svg width="8" height="9" viewBox="0 0 8 9" fill="none" xmlns="http://www.w3.org/2000/svg">
<path d="M4.6201 0.478602C5.0764 -0.107261 5.87263 -0.160919 6.51463 0.349695L7.25193 0.935633C7.55432 1.17212 7.75621 1.48377 7.82518 1.81161C7.90463 2.17208 7.8196 2.52588 7.58104 2.83212L3.18748 8.51376C2.98592 8.77156 2.68924 8.91651 2.37107 8.92196L0.620098 8.94345C0.524698 8.94345 0.445137 8.87938 0.423808 8.78817L0.0253709 7.06259C-0.0435904 6.74548 0.0259068 6.41773 0.227519 6.16513L3.34178 2.13388C3.39473 2.06951 3.49002 2.05903 3.55369 2.10653L4.86424 3.1495C4.94913 3.21937 5.06642 3.25742 5.18846 3.2413C5.44827 3.20895 5.6231 2.97231 5.59666 2.71981C5.58075 2.59088 5.51743 2.48304 5.4326 2.40243C5.40607 2.38093 4.15916 1.38095 4.15916 1.38095C4.07958 1.31645 4.06326 1.19833 4.12693 1.11825L4.6201 0.478602Z" fill="white"/>
</svg>
