<svg width="17" height="28" viewBox="0 0 17 28" fill="none" xmlns="http://www.w3.org/2000/svg">
<path d="M11.7738 4.02313C12.8983 4.02313 13.798 3.11793 13.798 2.01157C13.798 0.905205 12.8871 0 11.7738 0C10.6605 0 9.74961 0.905205 9.74961 2.01157C9.74961 3.11793 10.6605 4.02313 11.7738 4.02313Z" fill="white"/>
<path d="M13.2019 4.90599C11.6613 4.90599 10.4018 6.14645 10.4018 7.67748C10.4018 9.20851 11.6501 10.449 13.2019 10.449C14.7538 10.449 16.0021 9.20851 16.0021 7.67748C16.0021 6.14645 14.7538 4.90599 13.2019 4.90599Z" fill="white"/>
<path d="M6.42097 16.4725C5.92618 14.9415 5.93742 13.5669 6.46596 13.3993C6.98324 13.2316 7.8154 14.338 8.3102 15.8579C8.46764 16.3272 8.56884 16.7854 8.62507 17.1989C8.74877 16.8078 8.91745 16.3719 9.14236 15.9249C9.87331 14.4945 10.8742 13.5334 11.3577 13.7792C11.8413 14.0251 11.6501 15.3885 10.9079 16.8189C10.683 17.2548 10.4356 17.6571 10.1769 17.9812C10.548 17.78 10.9754 17.6012 11.4477 17.4448C12.9883 16.953 14.3715 16.9642 14.5401 17.4895C14.7088 18.0035 13.5955 18.8305 12.0662 19.3222C11.5939 19.4787 11.1328 19.5792 10.7167 19.6351C11.1103 19.7581 11.5489 19.9257 11.9987 20.1492C13.4381 20.8756 14.4052 21.8702 14.1578 22.3507C13.9104 22.8313 12.5385 22.6413 11.0991 21.9037C10.6605 21.6802 10.2557 21.4344 9.92954 21.1773C10.132 21.5461 10.3119 21.9708 10.4693 22.4401C10.9641 23.9712 10.9529 25.3457 10.4243 25.5134C9.90705 25.681 9.07489 24.5746 8.58009 23.0548C8.42265 22.5854 8.32145 22.1272 8.26522 21.7137C8.14152 22.1161 7.97284 22.5407 7.74793 22.9877C7.01698 24.4182 6.01614 25.3793 5.53259 25.1334C5.04904 24.8876 5.24021 23.5242 5.9824 22.0937C6.20731 21.6579 6.45471 21.2556 6.71335 20.9315C6.34226 21.1326 5.91493 21.3114 5.44263 21.4679C3.90201 21.9596 2.51882 21.9484 2.35014 21.4232C2.18146 20.9091 3.29475 20.0821 4.82413 19.5904C5.29643 19.434 5.7575 19.3334 6.17358 19.2775C5.76874 19.1546 5.34142 18.987 4.8916 18.7634C3.45219 18.037 2.48509 17.0424 2.73248 16.5619C2.97988 16.0814 4.35182 16.2713 5.79123 17.0089C6.2298 17.2324 6.63464 17.4783 6.96075 17.7353C6.75834 17.3665 6.57841 16.9419 6.42097 16.4725ZM3.57589 1.4975C1.15813 2.02274 -0.270037 4.45897 0.404687 6.78345C0.742049 7.95686 1.52923 8.87324 2.5638 9.37613C2.87867 9.53259 3.46343 9.65552 3.74457 9.7561C5.21772 10.326 4.82413 11.7788 3.58713 12.617C3.49717 12.6729 3.44094 12.7734 3.35098 12.8405C3.21604 12.9411 3.00237 13.1087 2.94615 13.1646L2.90116 13.2093C0.404687 15.3885 -0.697362 18.9311 0.460914 22.306C1.86659 26.385 6.2298 28.7766 10.4581 27.7708C15.2036 26.6533 18.0037 21.8367 16.6655 17.2324C15.6872 13.8686 12.7971 11.5665 9.50221 11.1754C9.01866 11.0636 7.17442 11.1195 6.94951 9.92373C6.8483 9.37614 7.75918 8.38153 8.0628 7.92334C8.76002 6.8505 8.97368 5.46476 8.49013 4.14606C7.87163 2.48093 6.24105 1.39692 4.49801 1.39692C4.20563 1.39692 3.90201 1.43045 3.59838 1.4975" fill="white"/>
</svg>
