<svg width="636" height="785" viewBox="0 0 636 785" fill="none" xmlns="http://www.w3.org/2000/svg">
<path d="M440.478 150.436C482.549 150.436 516.206 116.588 516.206 75.2182C516.206 33.8482 482.128 0 440.478 0C398.828 0 364.75 33.8482 364.75 75.2182C364.75 116.588 398.828 150.436 440.478 150.436Z" fill="white"/>
<path d="M493.908 183.449C436.271 183.449 389.151 229.833 389.151 287.083C389.151 344.332 435.85 390.717 493.908 390.717C551.966 390.717 598.665 344.332 598.665 287.083C598.665 229.833 551.966 183.449 493.908 183.449Z" fill="white"/>
<path d="M240.22 615.954C221.709 558.704 222.129 507.305 241.903 501.037C261.255 494.769 292.388 536.139 310.899 592.97C316.789 610.521 320.576 627.654 322.679 643.116C327.307 628.49 333.618 612.193 342.032 595.478C369.378 541.989 406.821 506.051 424.912 515.245C443.002 524.438 435.85 575.419 408.083 628.908C399.669 645.205 390.413 660.249 380.737 672.367C394.621 664.846 410.608 658.159 428.277 652.309C485.915 633.922 537.662 634.34 543.973 653.981C550.283 673.203 508.633 704.126 451.416 722.513C433.747 728.363 416.497 732.124 400.931 734.213C415.656 738.81 432.064 745.078 448.892 753.436C502.743 780.598 538.924 817.789 529.668 835.758C520.413 853.727 469.086 846.623 415.235 819.043C398.828 810.685 383.682 801.492 371.482 791.881C379.054 805.671 385.786 821.55 391.676 839.101C410.187 896.35 409.766 947.75 389.993 954.018C370.64 960.286 339.508 918.916 320.996 862.084C315.106 844.533 311.32 827.4 309.216 811.939C304.589 826.982 298.278 842.862 289.864 859.577C262.518 913.066 225.074 949.003 206.984 939.81C188.893 930.617 196.045 879.635 223.812 826.147C232.226 809.85 241.482 794.806 251.158 782.687C237.275 790.209 221.288 796.895 203.618 802.746C145.981 821.132 94.2336 820.714 87.9229 801.074C81.6122 781.852 123.263 750.929 180.479 732.542C198.149 726.692 215.398 722.931 230.964 720.841C215.819 716.245 199.832 709.976 183.003 701.619C129.152 674.457 92.9714 637.266 102.227 619.297C111.483 601.328 162.809 608.432 216.66 636.012C233.068 644.369 248.213 653.563 260.414 663.174C252.841 649.384 246.11 633.505 240.22 615.954ZM133.78 55.9958C43.3276 75.6361 -10.1025 166.734 15.1401 253.653C27.7614 297.53 57.2111 331.796 95.9164 350.6C107.696 356.451 129.573 361.047 140.091 364.808C195.204 386.12 180.479 440.444 134.201 471.785C130.835 473.875 128.732 477.636 125.366 480.143C120.318 483.904 112.324 490.172 110.221 492.261L108.538 493.933C15.1401 575.419 -26.0895 707.887 17.2436 834.086C69.8324 986.612 233.068 1076.04 391.255 1038.43C568.794 996.641 673.551 816.536 623.487 644.369C586.885 518.588 478.763 432.505 355.495 417.879C337.404 413.7 268.408 415.79 259.993 371.077C256.207 350.6 290.284 313.409 301.644 296.276C327.728 256.16 335.721 204.343 317.631 155.033C294.492 92.7692 233.489 52.2349 168.279 52.2349C157.34 52.2349 145.981 53.4885 134.622 55.9958" fill="white"/>
</svg>
