<svg width="150" height="150" viewBox="0 0 150 150" fill="none" xmlns="http://www.w3.org/2000/svg">
<path d="M139.92 121.353L134.001 111.112C133.028 109.337 132.707 107.278 133.093 105.292C136.701 87.709 124.728 69.0095 107.748 64.4516C100.385 62.3224 92.5348 62.5986 85.3396 65.2399C78.1445 67.8813 71.98 72.7499 67.7434 79.1373C51.907 102.785 69.5582 135.003 97.7294 134.859C104.758 134.874 111.634 132.815 117.498 128.941C119.164 127.794 121.182 127.272 123.196 127.468L134.959 128.892C135.886 128.992 136.824 128.835 137.667 128.437C138.511 128.039 139.229 127.416 139.741 126.637C140.254 125.858 140.542 124.952 140.574 124.02C140.605 123.088 140.379 122.165 139.92 121.353ZM117.105 103.769L100.308 120.567C100.082 120.798 99.8129 120.981 99.5156 121.106C99.2182 121.231 98.8989 121.296 98.5763 121.296C98.2537 121.296 97.9343 121.231 97.637 121.106C97.3397 120.981 97.0704 120.798 96.845 120.567L80.0224 103.769C68.6248 91.5806 85.6911 74.5445 97.8765 85.9155L98.5638 86.6274L99.2761 85.9153C111.366 74.5162 128.571 91.5799 117.105 103.769Z" fill="white"/>
<path d="M102.739 89.4024L100.308 91.8337C100.08 92.0614 99.8105 92.2421 99.5134 92.3653C99.2163 92.4886 98.8978 92.552 98.5762 92.552C98.2545 92.552 97.936 92.4886 97.639 92.3653C97.3419 92.2421 97.072 92.0614 96.8448 91.8337C94.6151 89.5312 92.4393 87.0373 88.9615 87.1433C87.4699 87.1598 86.0149 87.607 84.7714 88.431C83.5279 89.2549 82.5489 90.4206 81.9523 91.7878C81.3556 93.155 81.1667 94.6654 81.4082 96.1375C81.6497 97.6095 82.3113 98.9804 83.3135 100.085C83.3718 100.165 83.4375 100.239 83.5096 100.306L98.5638 115.36L113.643 100.306C115.062 98.8549 115.852 96.9022 115.841 94.872C115.83 92.8417 115.018 90.8979 113.583 89.4622C112.147 88.0266 110.203 87.2151 108.173 87.204C106.143 87.1928 104.19 87.9827 102.739 89.4024Z" fill="white"/>
<path d="M63.6422 76.4356C68.3483 69.3466 75.1452 63.8989 83.0888 60.8491C91.0325 57.7994 99.7287 57.2988 107.97 59.4171C107.851 50.8426 105.277 42.4818 100.553 35.3253C73.9464 -4.99512 10.2151 20.5974 18.8486 68.013C19.3622 70.5942 18.9443 73.2739 17.6691 75.5762L10.2035 88.4938C9.66182 89.4616 9.39682 90.5597 9.43747 91.6679C9.47813 92.7762 9.82286 93.852 10.434 94.7774C11.045 95.7029 11.8989 96.4424 12.9022 96.9151C13.9055 97.3878 15.0194 97.5753 16.1221 97.4573L30.9306 95.6893C33.5493 95.4135 36.1803 96.0843 38.3472 97.5804C44.0492 101.335 50.5339 103.738 57.3061 104.604C55.9093 94.7558 58.1629 84.737 63.6422 76.4356ZM44.2657 42.1525H76.1422C76.7869 42.1625 77.4019 42.4256 77.8543 42.8851C78.3067 43.3446 78.5603 43.9635 78.5603 44.6084C78.5603 45.2532 78.3067 45.8722 77.8542 46.3316C77.4018 46.7911 76.7868 47.0542 76.1421 47.0641H44.2657C43.6209 47.0542 43.006 46.7911 42.5535 46.3316C42.1011 45.8721 41.8475 45.2531 41.8475 44.6083C41.8475 43.9635 42.1011 43.3445 42.5535 42.8851C43.006 42.4256 43.6209 42.1625 44.2657 42.1525ZM35.2282 53.3265H76.1422C76.7922 53.3285 77.4149 53.5881 77.8738 54.0484C78.3327 54.5088 78.5904 55.1323 78.5904 55.7823C78.5904 56.4323 78.3327 57.0558 77.8738 57.5161C77.4149 57.9765 76.7922 58.2361 76.1422 58.2381H35.2283C34.5835 58.2281 33.9686 57.965 33.5161 57.5055C33.0637 57.0461 32.8101 56.4271 32.8101 55.7823C32.8101 55.1374 33.0637 54.5185 33.5161 54.059C33.9686 53.5995 34.5834 53.3364 35.2282 53.3265ZM35.2282 69.412C34.5832 69.4025 33.9678 69.1395 33.515 68.68C33.0623 68.2205 32.8085 67.6013 32.8085 66.9562C32.8085 66.3111 33.0623 65.6919 33.515 65.2324C33.9678 64.7729 34.5832 64.5099 35.2282 64.5004H63.4702C64.1152 64.5099 64.7306 64.7729 65.1834 65.2324C65.6361 65.6919 65.8899 66.3111 65.8899 66.9562C65.8899 67.6013 65.6361 68.2205 65.1834 68.68C64.7306 69.1395 64.1152 69.4025 63.4702 69.412H35.2282Z" fill="white"/>
</svg>
