<svg width="26" height="26" viewBox="0 0 26 26" fill="none" xmlns="http://www.w3.org/2000/svg">
<path d="M17.9356 0C22.1766 0 25.0256 2.97569 25.0256 7.40349V17.6222C25.0256 22.0499 22.1766 25.0256 17.9344 25.0256H7.08999C2.84904 25.0256 0 22.0499 0 17.6222V7.40349C0 2.97569 2.84904 0 7.08999 0H17.9356ZM19.3155 13.2011C17.9742 12.3643 16.9387 13.5394 16.6593 13.9152C16.3901 14.278 16.1586 14.6784 15.9145 15.0787C15.318 16.0665 14.6348 17.2055 13.452 17.8679C11.7333 18.8196 10.4284 17.9428 9.48978 17.3049C9.13746 17.0673 8.79522 16.8426 8.45423 16.6928C7.61371 16.3299 6.8575 16.7432 5.73513 18.1688C5.14626 18.9139 4.56243 19.6525 3.97105 20.3885C3.61748 20.8289 3.70178 21.5081 4.17866 21.8025C4.93991 22.2713 5.8685 22.5231 6.91789 22.5231H17.4634C18.0585 22.5231 18.6549 22.4417 19.2237 22.2558C20.5046 21.8374 21.5213 20.8792 22.0522 19.6137C22.5002 18.5497 22.7179 17.2584 22.2989 16.184C22.1592 15.8276 21.9503 15.4958 21.6572 15.2039C20.8884 14.4408 20.1699 13.7279 19.3155 13.2011ZM8.1319 5.00513C6.40683 5.00513 5.00513 6.40873 5.00513 8.13333C5.00513 9.85794 6.40683 11.2615 8.1319 11.2615C9.85572 11.2615 11.2587 9.85794 11.2587 8.13333C11.2587 6.40873 9.85572 5.00513 8.1319 5.00513Z" fill="#EFF2F4"/>
</svg>
