<svg width="31" height="27" viewBox="0 0 31 27" fill="none" xmlns="http://www.w3.org/2000/svg">
<path fill-rule="evenodd" clip-rule="evenodd" d="M29.4087 1.97558C29.8892 1.52358 29.8892 0.790991 29.4087 0.338996C28.9282 -0.112999 28.1495 -0.112999 27.669 0.338996L1.42933 25.0244C0.948859 25.4764 0.948859 26.209 1.42933 26.661C1.90979 27.113 2.68854 27.113 3.169 26.661L8.14665 21.9783C10.3076 22.9163 12.7822 23.5281 15.4198 23.5281C19.7132 23.5281 23.5739 21.906 26.356 19.897C27.749 18.891 28.8921 17.7744 29.6939 16.6875C30.4803 15.6215 31 14.4998 31 13.4996C31 12.4995 30.4803 11.3778 29.6939 10.3118C28.8921 9.22485 27.749 8.10824 26.356 7.10228C25.9124 6.78191 25.4412 6.47166 24.9446 6.17588L29.4087 1.97558ZM20.5496 10.3096L18.7492 12.0034C18.9799 12.4568 19.109 12.9638 19.109 13.5004C19.109 15.4175 17.457 16.9717 15.419 16.9717C14.8494 16.9717 14.3097 16.8502 13.8277 16.6332L12.0273 18.3269C12.9998 18.933 14.1652 19.2852 15.419 19.2852C18.8153 19.2852 21.569 16.6947 21.569 13.4996C21.569 12.3201 21.1931 11.2245 20.5496 10.3096Z" fill="white"/>
<path d="M16.6264 7.58667C16.7635 7.61116 16.9046 7.5706 17.0034 7.47263L20.1909 4.2896C20.407 4.07377 20.3174 3.70641 20.0223 3.62452C18.6045 3.2296 17.0969 3 15.5319 3C11.2516 3 7.40269 4.71665 4.62908 6.842C3.24036 7.90658 2.10071 9.08826 1.30135 10.2386C0.518089 11.3667 0 12.5529 0 13.6122C0 14.6714 0.518089 15.8577 1.30212 16.9858C1.98422 17.9677 2.91463 18.9726 4.03588 19.9078C4.19606 20.041 4.43058 20.028 4.5785 19.881L9.38461 15.0816C9.48271 14.9836 9.52333 14.8421 9.49881 14.7051C9.4352 14.3507 9.40147 13.9856 9.40147 13.6122C9.40147 10.2309 12.1467 7.48947 15.5327 7.48947C15.9059 7.48947 16.2708 7.52314 16.6264 7.58667Z" fill="white"/>
</svg>
