<svg width="24" height="26" viewBox="0 0 24 26" fill="none" xmlns="http://www.w3.org/2000/svg">
<path d="M8.30198 23.4907V19.6647C8.30198 18.688 9.09954 17.8962 10.0834 17.8962H13.6798C14.1522 17.8962 14.6053 18.0825 14.9394 18.4142C15.2735 18.7458 15.4612 19.1956 15.4612 19.6647V23.4907C15.4582 23.8968 15.6186 24.2872 15.9068 24.5754C16.1949 24.8636 16.5871 25.0256 16.9961 25.0256H19.4497C20.5956 25.0286 21.6957 24.5787 22.507 23.7754C23.3184 22.972 23.7744 21.8811 23.7744 20.7435V9.84366C23.7744 8.92472 23.364 8.05305 22.654 7.46348L14.3072 0.845703C12.8552 -0.31462 10.7749 -0.277156 9.36633 0.934681L1.21 7.46348C0.466404 8.03567 0.0219629 8.90992 0 9.84366V20.7324C0 23.1035 1.93621 25.0256 4.32465 25.0256H6.72225C7.57179 25.0256 8.26221 24.3452 8.26837 23.5019L8.30198 23.4907Z" fill="#EFF2F4"/>
</svg>
