<svg width="1139" height="1021" viewBox="0 0 1139 1021" fill="none" xmlns="http://www.w3.org/2000/svg">
<path d="M-13.883 149.98C-33.8628 180.271 -43.0063 213.162 -3.33543 231.182C0.887881 233.319 5.19443 235.326 9.51543 237.291C18.6718 243.874 28.1662 250.043 38.2926 255.148C58.6025 265.329 80.9392 271.101 103.147 276.404C137.862 285.354 169.797 288.101 205.438 280.186C262.325 268.051 312.582 237.56 365.58 215.135C397.075 201.647 430.265 187.538 452.953 161.474C484.863 124.946 482.879 70.0077 434.558 49.77C402.58 35.678 366.442 42.5531 332.307 43.5752C297.61 44.6632 263.88 33.4895 229.107 36.3114C206.112 38.1542 183.609 43.9736 161.181 49.537C94.9832 65.3474 24.3471 91.8337 -13.8916 149.991L-13.883 149.98ZM-14.6842 149.515C23.6129 91.0548 94.4669 64.3104 160.89 48.3678C194.35 39.7472 229.057 31.2892 263.7 35.9926C286.581 38.3161 309.143 43.3889 332.317 42.5853C355.368 42.0549 378.521 38.6222 401.55 40.8449C424.335 42.9286 447.712 51.4001 462.029 69.0388C483.83 96.1666 475.979 136.542 453.481 161.883C422.783 196.984 375.334 210.002 334.397 230.221C282.571 254.698 229.758 282.877 171.257 286.059C148.031 287.359 125.046 283.173 102.816 277.648C80.5289 272.289 58.1127 266.46 37.7178 256.185C27.6624 251.148 17.6059 244.545 8.95233 238.267C4.63995 236.291 0.344739 234.292 -3.88134 232.136C-43.9439 213.803 -35.2196 180.409 -14.6869 149.496L-14.6842 149.515Z" fill="white" fill-opacity="0.32"/>
<path d="M223.659 263.84C258.698 252.356 291.359 235.218 324.816 220.043C349.84 208.729 376.115 199.18 398.334 182.965C411.182 173.73 422.449 161.943 429.366 147.996C438.293 130.256 439.775 108.632 430.412 91.1162C422.018 75.5465 405.287 65.7191 387.921 61.3133C361.121 54.4154 333.184 59.7156 305.735 59.7148C278.038 59.5553 251.323 51.6816 223.615 52.3783C205.238 52.7827 187.092 56.7874 169.221 60.9862C124.695 71.5293 79.2053 84.0849 41.6288 110.662C19.2543 126.301 0.271807 146.998 -11.0078 171.294C-16.4554 183.172 -19.2844 197.385 -12.6749 209.069C-6.03419 220.826 7.53453 226.19 19.4273 231.975C26.5284 237.1 33.8865 241.94 41.6238 246.133C57.1356 254.563 74.2735 259.878 91.4958 264.355C140.55 277.837 174.05 279.82 223.679 263.837L223.659 263.84ZM223.936 264.692C189.644 276.221 152.383 280.005 117.246 271.667C99.7681 267.769 82.3114 263.662 65.4287 257.837C48.4708 252.131 32.7939 243.412 18.5782 232.998C11.0476 229.382 1.82459 225.434 -5.07057 219.885C-29.6984 200.347 -13.5866 168.452 1.73564 147.67C46.3578 87.8294 125.576 69.3031 196.095 54.6581C214.261 51.1514 232.888 50.9058 251.106 53.1686C269.334 55.1449 287.346 58.9026 305.722 58.8424C324.066 58.8459 342.428 56.3412 360.873 56.8305C388.027 57.1411 418.23 66.393 431.52 90.5358C442.269 110.465 439.11 135.202 427.398 154.513C420.227 166.053 410.307 175.994 399.119 183.986C376.77 200.23 350.403 209.783 325.294 221.071C291.796 236.184 259.047 253.276 223.936 264.692Z" fill="white" fill-opacity="0.32"/>
<path d="M210.97 255.75C249.787 243.31 285.584 223.503 323.155 207.982C350.458 196.08 379.721 181.098 393.15 154.1C401.014 138.477 402.218 119.433 393.887 104.055C382.275 83.1572 356.051 75.0754 332.378 74.5697C316.155 73.9797 299.898 76.0218 283.568 75.8429C267.191 75.7006 251.249 72.3228 235.159 70.5077C219.077 68.4546 202.717 68.4975 186.641 71.4309C124.421 83.9369 54.3638 100.299 14.9047 152.626C4.04958 167.879 -8.14127 188.094 1.11593 206.137C6.83057 216.565 18.7232 221.5 29.1994 226.689C35.5063 231.25 42.0611 235.518 48.9433 239.252C62.731 246.737 77.9647 251.525 93.2632 255.543C136.616 267.594 166.977 269.493 210.961 255.762L210.97 255.75ZM211.262 256.615C180.637 266.578 147.43 269.67 116.18 262.216C100.615 258.722 85.1033 255.023 70.0864 249.797C62.6042 247.151 55.2488 244.09 48.3087 240.315C41.3512 236.563 34.7617 232.271 28.3998 227.688C25.4524 226.255 21.0262 224.215 17.7502 222.378C-4.07367 211.718 -8.2351 193.461 1.65757 172.427C26.131 120.745 84.4025 94.8887 138.812 81.5534C162.562 75.9341 186.381 68.922 210.915 68.3499C235.422 67.8115 259.243 74.6354 283.616 74.9567C315.458 74.8254 351.092 67.7827 378.78 86.3203C404.419 102.756 406.641 135.27 391.63 159.938C376.655 184.147 349.553 197.855 323.686 209.067C286.046 224.54 250.281 244.214 211.282 256.612L211.262 256.615Z" fill="white" fill-opacity="0.32"/>
<path d="M191.526 247.674C217.745 239.396 242.353 226.893 267.347 215.404C279.843 209.615 292.64 204.515 304.671 197.952C319.635 189.843 333.884 179.397 342.556 164.703C350.999 150.263 353.217 131.803 345.283 117.019C335.455 99.0285 313.519 91.9674 293.623 91.3131C279.995 90.6546 266.291 92.2651 252.551 91.9621C238.769 91.6457 225.38 88.713 211.834 87.1171C205.073 86.2925 198.265 85.7138 191.431 85.7457C170.852 85.9427 150.778 91.819 130.842 96.6597C91.5568 106.748 50.6652 123.398 26.1061 156.965C14.8531 172.307 3.2369 195.968 20.3492 210.844C25.3776 215.238 31.5942 218.255 37.5377 221.354C53.3738 233.733 72.1741 241.616 91.7382 246.697C128.076 257.32 154.488 259.145 191.514 247.666L191.526 247.674ZM191.791 248.548C154.633 260.177 127.897 258.431 91.4088 247.822C71.714 242.751 52.7124 234.809 36.7375 222.382C24.7266 216.532 11.3572 209.261 10.4844 193.893C9.71457 180.051 17.4501 167.441 25.229 156.364C59.08 111.21 118.271 97.6576 170.906 86.9783C184.478 84.5031 198.364 84.6146 211.932 86.3662C225.523 87.9252 238.915 90.8077 252.57 91.0842C272.967 91.4025 294.047 87.7573 314.018 93.2029C334.923 98.6433 351.015 113.777 351.498 135.976C352.457 164.953 329.704 186.298 305.265 199.064C293.114 205.645 280.286 210.739 267.822 216.464C242.833 227.853 218.138 240.31 191.791 248.548Z" fill="white" fill-opacity="0.32"/>
<path d="M178.849 239.591C201.137 232.962 222.128 222.748 243.293 213.119C253.875 208.26 264.695 203.926 274.844 198.33C294.996 187.703 313.914 169.779 312.998 145.981C312.58 127.909 299.13 115.324 282.087 110.728C265.321 105.98 247.699 108.66 230.379 108.082C207.313 106.701 184.686 99.4616 161.426 103.782C117.061 112.251 67.0355 123.668 38.3415 161.294C30.3693 172.346 22.0367 186.896 28.1355 200.2C31.8113 207.906 39.944 212.005 47.2417 215.941C51.8249 219.361 56.5932 222.562 61.5846 225.378C76.5823 233.77 93.5608 238.055 110.273 242.199C132.736 247.908 156.542 246.294 178.838 239.583L178.849 239.591ZM179.109 240.485C156.706 247.313 132.612 249.001 110.008 243.314C93.1871 239.196 76.0851 234.911 60.9497 226.489C56.0439 223.771 50.7318 220.212 46.6237 217.1C39.0679 213.083 30.7237 208.796 26.9807 200.759C20.6979 186.951 29.2221 172.01 37.4945 160.681C66.5543 122.879 116.753 111.817 161.357 103.15C184.563 98.7377 207.487 105.891 230.45 107.198C247.698 107.707 265.576 104.947 282.423 109.683C299.968 114.342 313.839 127.284 314.345 145.915C315.162 184.481 274.221 200.985 243.782 214.178C222.605 223.728 201.514 233.887 179.097 240.477L179.109 240.485Z" fill="white" fill-opacity="0.32"/>
<path d="M166.191 231.513C184.53 226.496 201.912 218.624 219.268 210.858C236.313 203.19 254.973 196.151 266.984 181.396C275.767 170.736 279.005 155.143 272.177 143.039C265.229 130.832 250.345 125.798 236.635 124.869C227.242 124.084 217.735 124.792 208.218 124.24C193.997 123.174 180.28 119.448 165.985 119.187C151.74 118.838 137.758 122.508 123.914 125.668C114.673 127.893 105.521 130.52 96.6412 133.9C79.0406 140.595 62.0286 150.649 50.5623 165.635C42.4612 176.019 35.0352 192.007 45.7185 202.759C48.9428 205.98 53.0423 208.366 57.0492 210.614C64.5565 216.336 72.8463 221.084 81.7486 224.467C99.5616 230.774 118.362 236.522 137.637 235.921C147.247 235.574 156.835 234.029 166.141 231.531L166.191 231.513ZM166.434 232.422C147.697 237.652 127.663 238.654 108.93 233.831C94.9719 230.324 80.8311 226.561 68.2687 219.534C64.2065 217.264 59.7538 214.302 56.3798 211.723C52.2593 209.412 48.11 207.043 44.7786 203.655C33.6691 192.327 41.1654 175.799 49.7277 164.979C73.995 134.538 115.184 125.953 151.789 119.339C170.827 116.241 189.576 121.845 208.316 123.309C217.734 123.825 227.256 123.074 236.758 123.812C250.848 124.694 266.129 129.871 273.331 142.405C280.482 154.938 277.307 171.203 268.116 182.231C255.823 197.211 237.008 204.264 219.764 211.932C202.386 219.61 184.904 227.446 166.443 232.41L166.434 232.422Z" fill="white" fill-opacity="0.32"/>
<path d="M153.583 223.424C167.141 220.234 180.161 215.138 192.956 209.66C205.537 204.121 218.983 199.076 228.849 189.349C245.771 172.573 240.376 149.096 216.71 143.251C206.712 140.553 196.056 141.332 185.747 140.312C175.403 139.121 165.26 136.61 154.859 136C144.444 135.214 134.077 137.208 123.898 139.392C97.7615 144.867 67.1869 155.178 56.1661 181.215C53.8029 187.288 54.4989 194.504 59.1259 199.226C61.3617 201.531 64.1254 203.392 66.9052 205.065C72.8504 209.62 79.4303 213.425 86.4786 216.213C100.556 221.501 115.475 226.133 130.809 226.107C138.457 226.071 146.126 225.116 153.614 223.409L153.583 223.424ZM153.791 224.36C146.246 226.117 138.508 227.113 130.77 227.194C115.23 227.293 100.236 222.735 85.9281 217.408C78.7809 214.604 72.0901 210.774 66.0312 206.173C60.6317 203.127 54.3089 198.026 53.7822 191.097C52.5402 184.349 56.0555 177.312 60.0357 171.744C72.42 154.61 93.4694 146.094 113.534 141.094C127.129 138.096 140.926 134.401 154.917 135.273C165.373 135.813 175.52 138.272 185.867 139.41C196.251 140.356 206.832 139.505 217.032 142.184C231.457 145.601 242.348 157.065 239.796 172.223C235.865 193.962 211.846 202.882 193.426 210.785C180.568 216.2 167.458 221.267 153.784 224.392L153.791 224.36Z" fill="white" fill-opacity="0.32"/>
<path d="M141.043 215.32C150.814 213.74 160.351 210.907 169.56 207.342C178.609 203.756 188.052 199.941 194.908 193.023C206.742 181.031 201.783 165.118 185.796 160.292C176.619 157.388 166.123 157.417 156.67 155.189C151.802 154.269 146.949 153.378 142.041 152.885C132.205 151.696 122.285 153.492 112.597 155.417C102.927 157.469 93.3194 160.442 84.9493 165.564C75.3467 171.283 64.4783 183.419 71.4993 194.326C72.8459 196.211 74.7333 197.781 76.7165 199.154C81.0783 202.547 85.9854 205.419 91.1428 207.671C106.643 214.468 123.979 218.248 141.062 215.296L141.043 215.32ZM141.194 216.305C123.883 219.397 106.3 215.706 90.5387 208.892C85.265 206.613 80.2916 203.75 75.7354 200.256C73.943 199.039 71.6959 197.153 70.3158 195.11C62.9241 183.65 74.0724 170.707 84.4199 164.764C93.001 159.622 102.721 156.731 112.47 154.754C122.242 152.946 132.198 151.005 142.156 152.112C149.347 152.746 157.076 154.397 164.177 155.595C171.56 156.711 179.044 156.871 186.223 159.172C203.154 164.069 208.771 181.37 196.016 194.012C188.891 201.098 179.312 204.91 170.049 208.494C160.743 212.008 151.096 214.782 141.216 216.301L141.194 216.305Z" fill="white" fill-opacity="0.32"/>
<path d="M83.0097 188.499C80.9233 176.193 90.3841 171.934 95.9433 167.691C109.001 159.504 124.277 157.893 138.388 164.461C156.664 173.161 161.217 198.411 141.535 207.372C127.874 213.442 112.876 215.204 98.6219 208.728C92.1027 205.665 83.6675 200.206 82.9973 188.513L83.0097 188.499ZM81.9958 188.647C82.5528 200.963 91.5001 207.334 98.3135 210.62C112.776 217.765 128.131 215.42 141.871 208.618C161.933 198.694 157.546 172.738 138.685 162.935C124.347 155.66 108.558 156.863 95.3432 165.776C89.3702 170.366 79.6319 175.567 81.9958 188.647Z" fill="white" fill-opacity="0.32"/>
<path d="M-115.42 -182.343C-138.7 -155.393 -158.693 -125.305 -181.231 -97.6959C-192.923 -84.0965 -205.885 -71.5573 -220.109 -60.5643C-244.083 -42.6753 -270.953 -29.0013 -295.11 -11.3645C-309.798 -1.08336 -323.174 10.9005 -334.443 24.7729C-353.341 47.1855 -366.155 76.8788 -360.474 105.932C-348.887 162.685 -291.933 205.279 -236.454 216.672C-181.285 233.913 -118.018 219.7 -73.7113 181.905C-35.1729 150.617 -8.95267 107.618 27.9786 74.7019C42.9552 60.8027 61.1269 50.7232 80.373 43.9426C91.4017 40.1877 102.579 37.0002 113.757 33.8126C141.58 25.9352 169.968 17.8728 194.284 1.64425C230.444 -21.8459 250.679 -56.5901 249.893 -99.2659C248.495 -192.691 159.895 -266.898 67.6725 -267.627C-2.08162 -269.442 -70.4051 -235.054 -115.42 -182.343ZM-116.102 -182.924C-70.9595 -235.916 -2.35182 -270.523 67.7188 -268.767C160.577 -268.137 249.844 -193.463 250.969 -99.3177C251.637 -56.2847 231.273 -21.3458 194.743 2.31818C170.331 18.5617 141.835 26.6312 113.938 34.4718C82.2083 43.1333 52.9885 52.0711 28.3482 75.0896C-8.55849 108.04 -34.702 151.095 -73.2297 182.459C-117.689 220.5 -181.308 234.866 -236.764 217.621C-283.026 207.994 -325.762 179.7 -349.422 139.007C-358.227 123.794 -363.679 106.306 -363.129 88.5199C-362.204 64.7297 -350.692 42.2211 -335.435 23.9497C-324.094 10.0274 -310.559 -2.07826 -295.813 -12.3685C-271.634 -29.9893 -244.766 -43.6144 -220.776 -61.4575C-206.613 -72.3927 -193.662 -84.8719 -182.017 -98.3865C-159.417 -125.967 -139.451 -155.973 -116.085 -182.946L-116.102 -182.924Z" fill="white" fill-opacity="0.32"/>
<path d="M-219.086 196.897C-173.677 209.787 -122.382 200.073 -84.0315 171.796C-44.8745 143.918 -19.8122 102.015 15.131 69.7455C39.9692 45.6234 67.6063 37.2477 100.031 28.3586C115.3 24.0467 130.606 19.7287 145.152 13.4423C173.953 1.05069 200.901 -19.8669 212.941 -49.2261C224.905 -78.4183 222.345 -111.559 211.272 -140.189C199.918 -168.989 179.235 -193.82 153.916 -211.716C101.336 -248.475 32.4931 -250.5 -26.3166 -223.985C-71.9578 -203.784 -103.442 -170.588 -132.064 -131.101C-146.41 -112.235 -159.78 -92.4731 -176.175 -75.1811C-203.257 -45.6613 -240.515 -28.8545 -272.045 -4.83467C-314.389 26.511 -345.465 75.0981 -319.982 125.964C-301.231 164.367 -261.874 190.976 -219.075 196.905L-219.086 196.897ZM-219.288 197.773C-266.126 191.367 -309.501 159.929 -325.482 115.658C-342.898 67.7862 -311.147 22.5206 -272.805 -5.81315C-247.649 -25.2184 -218.741 -39.4422 -194.309 -59.7149C-182.213 -69.9297 -171.201 -81.3928 -161.54 -93.8879C-120.022 -147.171 -92.101 -195.576 -26.6172 -224.646C17.2575 -244.203 67.2403 -248.645 112.436 -233.266C171.939 -213.651 219.467 -158.115 221.676 -94.9714C224.041 -43.0738 192.682 -5.6937 145.622 14.534C116.403 27.253 84.4274 31.8976 55.2504 44.4936C40.6441 50.77 27.5542 59.8195 16.0154 70.6949C-18.9442 102.918 -44.1197 144.858 -83.3815 172.695C-121.964 201.076 -173.712 210.802 -219.297 197.784L-219.288 197.773Z" fill="white" fill-opacity="0.32"/>
<path d="M-201.692 177.072C-160.82 187.461 -115.425 177.758 -81.5496 152.133C-42.6108 123.783 -19.2454 79.8881 19.2442 50.9549C37.7238 36.8313 60.8264 30.6653 82.796 24.3445C109.896 16.9039 137.526 7.72552 158.927 -11.157C165.531 -16.8885 171.599 -23.4712 176.397 -30.7525L177.899 -32.9143C179.089 -34.8914 180.663 -37.8728 181.767 -39.7585C188.795 -53.8238 191.961 -69.5962 191.744 -85.0855C191.027 -141.116 149.657 -191.395 96.4707 -208.341C42.8603 -226.4 -18.552 -211.088 -63.2556 -176.961C-103.786 -147.301 -126.528 -101.517 -159.879 -65.2614C-188.878 -33.822 -230.049 -17.2385 -260.694 12.3049C-286.894 36.0048 -303.842 70.9348 -294.328 105.594C-283.404 146.032 -243.763 174.659 -201.715 177.056L-201.692 177.072ZM-201.846 177.952C-244.214 175.615 -284.333 146.693 -295.366 105.901C-305.048 70.8985 -287.994 35.4456 -261.527 11.4607C-230.954 -18.1689 -189.772 -34.7444 -160.71 -66.0183C-127.293 -102.226 -104.359 -147.991 -63.7406 -177.587C-18.7732 -211.813 42.8488 -226.904 96.6869 -208.92C150.189 -191.984 191.882 -141.454 192.684 -85.1052C193.056 -55.7627 182.465 -30.0119 159.646 -10.3439C138.148 8.69022 110.304 18.0383 83.1258 25.5592C61.2031 31.9311 38.4473 38.0237 20.0267 52.0017C-18.3543 80.7915 -41.8612 124.737 -80.88 153.013C-114.961 178.728 -160.847 188.469 -201.846 177.952Z" fill="white" fill-opacity="0.32"/>
<path d="M-184.315 157.236C-147.988 165.089 -108.467 155.394 -79.053 132.397C-49.0294 109.686 -29.3348 77.1187 -1.24424 52.3025C2.72531 48.7529 7.38004 45.3218 11.5991 42.0561C17.4992 38.1872 23.7425 34.8419 30.2064 32.0002C53.2806 22.2774 78.2316 18.2961 101.148 8.30448C118.165 0.910566 134.21 -9.69606 145.633 -24.3566C157.165 -38.9557 162.657 -57.3986 162.829 -75.5728C163.293 -142.71 101.598 -194.135 34.6145 -189.857C0.460951 -188.094 -32.7613 -174.556 -59.6355 -153.498C-99.9175 -123.083 -119.674 -74.4614 -157.508 -41.7574C-186.151 -17.9602 -220.492 -0.68027 -244.58 28.1882C-259.634 47.3137 -268.598 72.6218 -264.641 96.5202C-258.547 133.238 -221.411 158.585 -184.285 157.241L-184.315 157.236ZM-184.409 158.13C-237.801 159.526 -280.494 112.592 -262.778 60.2587C-255.574 35.2728 -238.492 17.7196 -218.571 1.55392C-199.188 -14.1079 -177.38 -26.6554 -158.321 -42.6383C-139.175 -58.7129 -125.084 -79.361 -110.361 -99.2076C-95.6017 -119.079 -80.1122 -138.938 -60.1622 -154.12C-35.5634 -173.271 -5.77521 -186.255 25.2724 -189.668C43.8506 -191.789 62.8349 -190.18 80.5324 -184.675C134.098 -169.056 173.226 -112.729 161.798 -57.2652C155.839 -25.7065 130.686 -2.9889 101.614 9.41525C71.8357 22.682 37.4247 25.2378 10.5084 44.5819C-23.5789 69.5371 -44.5524 107.895 -78.3659 133.307C-107.968 156.392 -147.982 166.125 -184.415 158.161L-184.409 158.13Z" fill="white" fill-opacity="0.32"/>
<path d="M-169.406 137.398C-148.726 140.808 -127.317 137.763 -108.022 129.175C-88.5886 120.742 -72.6074 106.085 -58.5974 90.3452C-41.0405 70.6901 -25.2061 48.34 -2.87125 33.5783C19.7952 19.3046 47.0199 16.4467 71.0285 5.44942C101.253 -7.79299 123.181 -32.5654 123.926 -66.6841C125.871 -122.353 78.8645 -165.807 24.3763 -164.007C-17.7877 -162.994 -57.7311 -139.637 -84.0666 -106.665C-97.5817 -90.2468 -108.931 -72.2556 -121.873 -55.3777C-134.803 -38.3348 -151.581 -24.8388 -168.666 -12.2966C-175.898 -7.03957 -186.538 1.78612 -193.652 7.33879C-199.339 12.4292 -205.64 18.256 -211.015 23.6308C-220.161 33.2023 -226.27 45.201 -231.018 57.4848C-239.22 77.4142 -239.671 99.7793 -225.341 116.564C-211.867 132.472 -190.104 140.055 -169.395 137.406L-169.406 137.398ZM-169.429 138.296C-200.999 142.541 -235.605 122.007 -237.774 88.2822C-239.136 68.9081 -228.509 44.5244 -217.078 28.9087C-212.26 22.482 -206.098 17.2769 -200.368 11.7177L-194.441 6.37301L-181.994 -3.56516C-178.902 -6.0907 -172.627 -10.9697 -169.427 -13.3454C-152.345 -25.838 -135.694 -39.1173 -122.724 -56.0782C-109.76 -72.871 -98.3177 -90.8967 -84.7563 -107.263C-58.2069 -140.319 -17.9924 -163.699 24.3737 -164.596C55.9744 -165.554 87.5138 -151.286 106.242 -125.813C125.016 -100.858 131.09 -65.1676 117.776 -35.7472C108.678 -16.1376 90.7563 -2.12573 71.4997 6.52468C45.3038 18.7146 14.6768 20.9823 -8.57828 39.3107C-36.0396 60.3221 -53.57 91.7094 -80.5201 113.446C-105.02 133.977 -138.365 143.695 -169.429 138.296Z" fill="white" fill-opacity="0.32"/>
<path d="M-152.011 117.518C-120.779 120.478 -91.0005 106.729 -69.5231 83.794C-53.2118 67.2138 -40.0156 47.3068 -21.6036 32.7592C2.88197 12.5146 36.8985 12.7257 62.8399 -4.73044C91.0683 -22.2429 101.447 -54.009 92.4558 -85.1837C84.2231 -115.063 55.5797 -136.355 25.0425 -137.91C-13.5129 -140.123 -50.9337 -118.399 -74.6949 -88.2C-89.5081 -70.1747 -100.752 -49.3203 -116.64 -32.0945C-132.621 -14.9728 -152.095 -1.77152 -169.389 13.8856C-180.772 23.7427 -193.391 34.8555 -198.293 49.5344C-206.53 58.2681 -210.816 70.2553 -209.669 82.142C-209.235 99.1021 -195.376 112.475 -179.894 116.857C-170.882 119.663 -161.322 119.571 -152.008 117.537L-152.011 117.518ZM-151.963 118.441C-161.211 120.523 -171.149 120.666 -180.21 117.858C-194.983 113.69 -208.414 101.714 -210.513 85.8303C-212.528 71.9925 -208.527 58.5753 -199.405 49.0377C-194.353 34.0875 -181.767 22.9503 -170.21 12.927C-152.957 -2.74347 -133.495 -15.8835 -117.476 -32.8727C-101.558 -50.024 -90.2951 -70.7428 -75.3912 -88.7528C-65.6588 -100.952 -54.054 -111.705 -40.8572 -119.969C-14.8764 -136.491 18.3853 -144.516 47.5348 -133.829C69.1117 -126.009 86.9753 -107.847 93.2771 -85.4429C99.8663 -63.312 96.563 -37.2636 81.0641 -19.1392C70.9854 -7.02407 57.0325 1.11249 42.6431 6.78383C21.2146 15.276 -2.58845 18.6604 -20.7971 33.8291C-39.1676 48.3206 -52.25 68.0511 -68.6634 84.6772C-90.4971 107.887 -120.361 121.59 -151.982 118.444L-151.963 118.441Z" fill="white" fill-opacity="0.32"/>
<path d="M-134.585 97.6433C-109.563 97.3301 -86.309 84.4953 -69.6629 65.7786C-52.8143 47.5998 -38.1095 25.2006 -14.5544 15.2285C2.69618 7.84791 21.2926 4.58448 37.3559 -5.38805C65.4865 -20.8777 76.6361 -58.2753 60.3603 -85.7762C33.9924 -127.387 -21.0613 -113.953 -52.3722 -83.8856C-70.8047 -66.6255 -81.7601 -43.2915 -97.7826 -24.0037C-109.979 -9.54429 -124.592 2.47828 -138.724 14.8946C-148.548 22.5961 -158.968 30.2221 -165.398 41.1252C-172.495 46.203 -178.787 52.8133 -181.965 61.0094C-185.164 69.049 -185.931 78.5526 -181.05 85.889C-171.37 100.975 -150.608 103.549 -134.565 97.6402L-134.585 97.6433ZM-134.443 98.5409C-150.733 104.669 -172.213 101.999 -182.065 86.5203C-187.153 78.9067 -186.444 68.9023 -183.107 60.5608C-179.856 52.1029 -173.355 45.2794 -166.125 40.0904C-160.692 30.0958 -149.041 21.314 -139.548 13.8752C-120.748 -2.513 -101.162 -18.596 -87.3044 -39.7104C-76.7523 -55.2389 -66.6926 -71.5394 -52.9124 -84.5C-30.3304 -105.31 2.99859 -119.645 32.8015 -109.285C47.32 -104.039 59.5767 -92.4631 65.208 -77.8844C72.6941 -57.3492 68.2621 -32.2406 52.6915 -16.1852C35.0818 2.81462 8.6504 7.05235 -14.0258 16.4848C-37.4586 26.4075 -51.8679 48.4997 -68.7633 66.6259C-85.7297 85.6135 -109.044 98.3679 -134.431 98.5491L-134.443 98.5409Z" fill="white" fill-opacity="0.32"/>
<path d="M-117.053 77.7337C-92.3306 72.624 -77.055 57.2652 -61.6602 38.0495C-55.0728 30.1712 -48.0097 22.4712 -39.5435 16.6099C-28.82 8.6745 -15.7271 5.33851 -3.63992 0.801463C18.2638 -6.81583 38.9912 -21.8515 41.2902 -46.9299C43.8207 -64.6025 30.6835 -81.3533 13.9753 -84.998C-3.00206 -88.6305 -20.5721 -81.3148 -34.6363 -71.6006C-54.3676 -58.246 -64.625 -36.0681 -77.7095 -16.833C-86.148 -4.77224 -95.9692 6.34022 -107.337 15.6673C-109.666 17.509 -112.25 18.9445 -114.69 20.4889C-119.613 23.5444 -124.228 27.0992 -129.008 30.477C-133.854 33.8045 -138.803 36.8232 -143.565 40.178C-148.3 43.5182 -153.08 46.9672 -156.688 51.4384C-162.323 58.0489 -162.873 68.4217 -156.761 74.651C-146.56 85.288 -129.555 83.9409 -117.002 77.7358L-117.053 77.7337ZM-116.771 78.6232C-127.135 83.7397 -139.934 85.6177 -150.541 80.5686C-162.467 75.0483 -166.281 61.4182 -157.629 50.7145C-149.933 41.6145 -139.245 36.1522 -129.742 29.4258C-125.011 26.0658 -120.362 22.465 -115.385 19.3604C-110.246 16.4841 -105.794 12.9857 -101.504 8.95451C-92.9652 1.04075 -85.2954 -7.88247 -78.5503 -17.4104C-68.4955 -31.7582 -60.5565 -47.8722 -48.3344 -60.6652C-33.0865 -76.5983 -7.89722 -90.2502 14.1503 -85.706C25.5149 -83.2139 35.2918 -74.9667 39.9323 -64.1989C44.5076 -53.3192 42.5301 -40.3745 37.4452 -29.8509C26.5387 -7.42789 1.97293 0.388308 -19.5633 7.97777C-64.034 22.9825 -66.5152 68.0313 -116.76 78.6316L-116.771 78.6232Z" fill="white" fill-opacity="0.32"/>
<path d="M-98.2971 23.791C-111.334 27.1471 -125.38 31.1303 -134.92 41.4539C-145.479 54.1534 -133.573 64.8178 -120.316 64.3181C-104.94 64.0146 -90.7481 52.7494 -80.2574 41.9014C-73.0728 34.1125 -67.3666 24.8927 -59.738 17.2937C-55.9875 13.4366 -51.5397 10.364 -46.9372 7.68294C-26.9252 -4.18827 0.373211 -6.1121 13.7357 -27.5215C15.0677 -29.77 16.1965 -32.3919 17.0295 -34.7073C19.2753 -43.6933 14.5999 -53.5845 6.54956 -57.5043C-4.72574 -62.8602 -17.2912 -55.8346 -27.1763 -49.8348C-40.1872 -41.3349 -48.3526 -27.5362 -54.8917 -13.6404C-60.338 -2.55847 -65.5681 9.60215 -75.8783 17.0001C-82.9493 20.6112 -90.7649 21.7919 -98.3112 23.7621L-98.2971 23.791ZM-98.4941 22.8549C-91.125 20.9335 -82.9482 19.4775 -76.4525 16.1443C-66.3768 8.82491 -61.3103 -3.1851 -55.9617 -14.158C-49.4071 -28.2435 -41.1397 -42.4223 -27.8265 -50.8763C-17.6123 -57.0111 -4.63604 -64.0183 6.99429 -58.3752C15.3629 -54.2144 20.1897 -43.8791 17.7903 -34.5153C16.8674 -31.957 15.7395 -29.4807 14.3584 -27.1414C0.805068 -5.78501 -26.4756 -3.49998 -46.4967 8.45586C-51.0191 11.1243 -55.3697 14.1608 -59.0515 17.9966C-66.5257 25.5296 -72.1492 34.7571 -79.3832 42.7099C-90.0357 53.8746 -104.51 65.5483 -120.325 65.7026C-134.626 66.1798 -147.192 54.2467 -135.811 40.6689C-126.079 30.1798 -111.762 26.1643 -98.5055 22.8463L-98.4941 22.8549Z" fill="white" fill-opacity="0.32"/>
<path d="M-11.8751 770.414C39.9117 825.394 91.4439 890.327 169.507 908.982C174.939 910.242 180.444 911.248 185.98 911.989C191.495 912.781 197.04 913.307 202.555 912.143C213.596 910.047 223.11 902.717 228.493 893.074C246.463 864.608 255.143 832.119 264.747 800.398C277.862 755.082 293.821 718.33 329.069 684.624C345.064 668.817 362.407 654.253 376.349 636.711C401.23 605.452 401.507 580.344 396.105 543.084C387.726 488.849 354.82 438.933 306.104 411.796C301.389 409.147 296.277 406.434 291.282 404.264C286.137 402.224 280.689 400.85 275.246 399.65C264.316 397.285 253.199 395.705 242.078 394.309C108.058 380.309 -27.2341 377.416 -160.896 360.136C-224.914 352.145 -288.814 341.977 -351.016 325.447C-355.056 324.407 -358.998 323.081 -363.193 323.324C-364.531 323.415 -365.853 323.755 -366.772 324.556C-368.705 326.394 -368.203 329.444 -367.541 331.791C-366 336.983 -363.188 341.747 -360.357 346.372C-354.541 355.647 -347.905 364.407 -341.144 373.071C-320.752 398.987 -298.839 423.72 -277.768 449.105C-267.369 461.92 -256.494 474.517 -248.115 488.768C-246.778 491.262 -245.454 493.729 -245.045 496.609C-244.938 499.39 -245.172 502.147 -245.018 504.911C-241.829 581.326 -170.33 641.358 -114.645 686.731C-97.3594 700.494 -79.6998 713.812 -62.2019 727.32C-44.7961 740.948 -27.037 754.338 -11.8834 770.425L-11.8751 770.414ZM-12.5629 771.024C-27.6753 755.018 -45.4317 741.647 -62.8183 728.083C-80.3413 714.609 -98.0203 701.294 -115.326 687.534C-171.376 641.965 -243.016 581.849 -246.302 504.955C-246.532 502.29 -246.17 499.388 -246.336 496.751C-246.685 494.22 -247.992 491.731 -249.26 489.371C-257.585 475.228 -268.473 462.672 -278.806 449.905C-299.844 424.475 -321.729 399.729 -342.118 373.764C-348.882 365.081 -355.512 356.291 -361.358 346.943C-364.233 342.218 -367.059 337.428 -368.644 332.068C-372.251 318.908 -359.032 321.867 -350.693 324.371C-288.563 340.951 -224.743 351.18 -160.756 359.234C-27.1417 376.598 108.157 379.751 242.18 393.702C253.329 395.084 264.446 396.665 275.415 399.023C280.889 400.228 286.337 401.602 291.565 403.668C296.599 405.832 301.702 408.556 306.467 411.207C355.419 438.395 388.535 488.462 397.013 542.905C402.497 580.326 402.239 605.77 377.198 637.306C363.186 654.984 345.829 669.589 329.903 685.395C294.817 719.047 279.075 755.582 266.075 800.725C256.51 832.44 247.653 865.159 229.602 893.686C224.055 903.568 214.16 911.218 202.783 913.328C197.152 914.51 191.367 913.982 185.79 913.161C180.211 912.407 174.673 911.377 169.2 910.104C90.8903 891.323 39.2896 826.188 -12.5683 770.986L-12.5629 771.024Z" fill="white" fill-opacity="0.32"/>
<path d="M202.659 928.755C214.329 929.423 226.261 925.03 234.776 917.019C242.972 908.708 248.87 898.25 254.354 888.087C275.478 846.169 281.821 799.115 300.767 756.307C309.969 734.776 322.35 714.483 337.498 696.372C367.407 661.604 410.515 630.815 414.997 582.521C417.568 550.161 411.789 517.403 398.639 487.943C391.749 473.054 382.993 458.705 372.553 445.962C369.784 442.165 364.329 436.618 361.139 432.992L354.905 426.986C352.915 425.109 350.616 422.806 348.491 421.172C345.787 419.086 341.127 414.741 338.391 412.989C335.007 410.651 331.258 407.557 327.767 405.448C318.032 399.21 308.045 393.011 297.082 389.149C263.327 379.081 227.296 379.229 192.132 377.947C156.73 377.157 121.268 375.863 86.1725 371.505C76.1827 370.384 61.2709 367.888 51.2331 366.359C27.9534 362.858 4.78462 358.673 -18.6892 356.527C-65.6659 352.521 -113.005 352.313 -159.955 347.867C-171.266 346.932 -183.878 345.347 -195.025 343.409C-229.802 337.309 -263.485 326.494 -296.804 315.517C-319.06 308.337 -341.297 300.662 -364.441 296.444C-382.586 291.906 -379.163 306.878 -374.514 318.333C-360.612 349.949 -339.446 377.866 -319.043 405.641C-301.943 428.861 -283.552 451.329 -269.278 476.418C-266.977 480.761 -264.543 485.761 -263.803 490.626C-260.985 514.183 -253.512 537.085 -242.426 558.007C-198.631 640.278 -118.777 694.661 -48.7465 753.99C-21.8147 775.889 1.07892 802.572 25.2605 827.227C72.8265 875.879 130.189 924.783 202.635 928.72L202.659 928.755ZM202.597 929.645C129.9 925.746 72.2494 876.771 24.4985 828.003C0.302856 803.388 -22.5633 776.759 -49.4897 754.898C-119.681 695.555 -199.742 641.108 -243.428 558.559C-254.53 537.524 -262.035 514.461 -264.811 490.783C-265.524 486.038 -267.945 481.133 -270.158 476.921C-284.366 451.88 -302.709 429.395 -319.749 406.186C-340.162 378.335 -361.315 350.377 -375.213 318.644C-379.593 307.757 -383.858 290.904 -364.261 295.758C-341.073 300.008 -318.841 307.714 -296.55 314.936C-263.236 325.943 -229.642 336.83 -194.865 342.862C-183.726 344.743 -171.208 346.362 -159.85 347.281C-112.878 351.675 -65.577 351.82 -18.5669 355.783C4.94305 357.904 28.1368 362.056 51.4138 365.538C61.5098 367.058 76.3083 369.523 86.3479 370.646C121.427 374.958 156.823 376.204 192.238 376.954C227.466 378.197 263.669 378.003 297.546 388.091C308.728 392.025 318.693 398.208 328.522 404.48C332.109 406.641 335.811 409.685 339.217 412.039C343.026 414.649 346.076 417.629 349.392 420.258C352.196 422.348 353.451 423.933 355.851 426.104L362.128 432.143C365.159 435.619 370.864 441.398 373.631 445.176C384.131 457.997 392.995 472.406 399.937 487.384C413.233 517.034 418.995 550.017 416.386 582.606C411.9 631.151 368.5 662.324 338.484 697.1C323.4 715.104 311.053 735.285 301.865 756.708C282.885 799.492 276.518 846.511 255.283 888.484C249.717 898.776 243.797 909.219 235.471 917.656C226.751 925.825 214.563 930.305 202.642 929.609L202.597 929.645Z" fill="white" fill-opacity="0.32"/>
<path d="M213.881 944.682C239.121 944.651 253.126 929.436 265.439 909.537C283.599 880.588 292.624 839.954 302.412 807.56C312.459 772.739 325.809 738.332 346.973 708.24C378.859 664.129 430.308 631.282 432.003 572.174C433.571 544.387 428.939 516.402 418.986 490.586C417.16 486.502 415.603 482.29 413.744 478.25C413.004 476.732 408.395 467.738 407.685 466.293C405.682 463.048 402.807 458.055 400.818 454.77C397.918 450.505 394.692 445.682 391.595 441.564C372.051 415.989 346.683 394.476 317.626 379.806C301.384 371.65 282.859 369.161 264.765 367.475C235.498 365.058 206.033 366.759 176.651 367.162C147.223 367.65 117.721 366.371 88.7794 361.575C52.5647 355.928 17.9807 343.226 -18.5081 338.992C-40.3655 336.441 -62.4647 336.787 -84.496 336.774C-113.907 336.901 -143.337 336.471 -172.636 334.321C-179.391 333.909 -187.896 332.881 -194.558 332.146L-205.395 330.301C-237.872 324.431 -268.88 312.884 -298.903 299.977C-322.353 290.098 -345.07 278.493 -369.313 270.486C-371.024 269.862 -372.788 269.421 -374.555 268.961L-379.836 267.577C-390.737 269.877 -389.048 283.942 -386.841 292.459C-384.481 301.986 -380.712 311.12 -376.644 320.063C-354.294 369.182 -319.023 412.18 -292.737 459.133C-289.28 465.582 -285.825 472.369 -283.575 479.372C-282.087 484.909 -280.564 491.744 -279.245 497.346C-278.275 500.49 -276.565 506.543 -275.601 509.717C-274.594 512.701 -272.337 518.775 -271.276 521.866C-223.81 641.276 -107.987 711.275 -19.4039 798.58C44.4327 863.108 114.239 942.737 213.911 944.687L213.881 944.682ZM213.849 945.575C113.862 943.703 43.793 864.038 -20.2722 799.362C-109.029 712.084 -225.085 641.986 -272.339 522.253C-273.367 519.186 -275.635 513.103 -276.672 510.047C-277.581 506.845 -279.398 500.799 -280.304 497.617C-281.607 492.061 -283.072 485.148 -284.599 479.685C-286.81 472.744 -290.247 466.021 -293.66 459.604C-319.893 412.605 -355.089 369.575 -377.408 320.394C-381.471 311.421 -385.234 302.257 -387.616 292.647C-389.85 283.941 -391.745 269.047 -379.678 266.876C-365.413 270.296 -351.907 275.969 -338.562 281.763C-315.342 291.967 -292.144 302.783 -268.347 311.758C-244.599 320.663 -219.755 327.881 -194.484 331.555C-158.087 335.841 -121.205 336.149 -84.5178 336.063C-62.4782 336.064 -40.3236 335.69 -18.4385 338.228C18.0837 342.417 52.6927 355.087 88.913 360.705C117.811 365.468 147.246 366.699 176.631 366.18C206.026 365.736 235.535 364 264.85 366.399C283.071 368.075 301.756 370.577 318.144 378.788C347.378 393.518 372.936 415.117 392.607 440.817C395.764 444.946 398.957 449.812 401.899 454.09C403.769 457.307 406.931 462.439 408.824 465.672L410.046 468.081L414.943 477.707C416.816 481.774 418.444 486.004 420.245 490.12C430.289 516.087 434.912 544.285 433.31 572.251C431.438 631.995 380.162 664.526 347.932 708.932C326.813 738.921 313.499 773.166 303.435 807.874C293.573 840.232 284.576 880.987 266.254 910.058C253.85 930.077 239.451 945.652 213.844 945.605L213.849 945.575Z" fill="white" fill-opacity="0.32"/>
<path d="M233.374 960.613C248.787 960.147 264.149 953.54 274.618 942.319C285.323 931.215 293.808 918.271 300.233 904.466C319.113 862.648 325.713 817.041 341.564 774.212C352.074 745.658 365.586 717.57 385.713 694.006C405.32 670.358 428.347 648.984 443.344 622.144C466.526 581.857 462.643 532.744 448.54 490.81C431.265 441.149 394.659 398.887 348.557 372.119C335.452 364.248 321.041 358.75 305.727 356.286C251.95 347.076 197.133 360.351 142.934 357.181C119.645 356.039 96.5098 352.411 74.2112 346.127C51.929 339.888 30.4465 331.219 7.9577 325.697C-22.0534 317.479 -53.5187 319.243 -84.4957 320.932C-123.302 322.656 -162.423 323.376 -200.941 319.032C-255.185 311.506 -302.939 284.22 -349.155 257.845C-362.179 250.609 -376.893 242.3 -390.639 239.141C-404.627 249.137 -392.121 285.014 -387.717 298.266C-370.896 347.263 -340.553 391.442 -316.024 436.842C-308.728 450.566 -301.529 464.798 -297.482 479.88C-287.727 514.944 -270.925 547.787 -250.596 578.012C-191.786 664.979 -105.732 729.074 -29.6331 800.808C42.7701 870.359 121.362 962.695 233.372 960.594L233.374 960.613ZM233.393 961.508C121.076 963.694 42.1663 871.369 -30.4425 801.637C-106.634 729.888 -192.888 665.853 -251.588 578.676C-271.934 548.338 -288.755 515.363 -298.487 480.179C-302.487 465.148 -309.63 451.024 -316.885 437.312C-341.375 391.838 -371.673 347.624 -388.466 298.545C-393.236 284.201 -405.495 248.653 -390.904 238.477C-375.571 241.701 -362.263 250.023 -348.788 257.277C-302.661 283.656 -255.005 311.025 -200.824 318.455C-162.342 322.755 -123.277 321.996 -84.5039 320.248C-53.51 318.537 -21.8801 316.738 8.1896 324.947C30.737 330.46 52.1861 339.105 74.4851 345.322C96.7366 351.556 119.8 355.166 143.024 356.279C197.263 359.376 252.122 346.046 305.974 355.225C321.358 357.688 336.048 363.249 349.197 371.152C395.594 398.029 432.422 440.45 449.878 490.392C464.11 532.606 467.885 582.217 444.502 622.767C429.428 649.706 406.326 671.111 386.68 694.765C366.617 718.223 353.165 746.167 342.666 774.593C326.766 817.42 320.138 863.041 301.171 904.882C294.706 918.761 286.126 931.806 275.34 942.97C264.667 954.368 249.057 961.052 233.404 961.516L233.393 961.508Z" fill="white" fill-opacity="0.32"/>
<path d="M244.613 976.545C270.369 974.946 289.772 959.636 303.914 939.378C317.851 919.634 325.541 896.675 332.07 873.885C344.956 828.081 353.583 780.771 374.867 737.484C395.014 693.418 436.85 663.172 459.669 620.729C483.004 578.265 479.794 527.028 464.601 483.16C443.971 425.103 396.315 373.345 338.397 348.499C323.381 342.891 307.22 340.41 291.112 339.628C242.365 337.453 193.99 350.401 145.208 347.98C120.856 346.943 96.6806 342.541 73.8223 334.677C50.9916 326.867 29.4493 315.81 6.2918 308.918C-26.7687 298.11 -56.0286 302.235 -89.9983 305.463C-106.207 306.896 -122.462 307.872 -138.711 308.259C-163.046 308.588 -187.573 308.764 -211.696 305.839C-251.988 300.175 -288.935 282.046 -322.549 260.831C-342.888 248.162 -361.911 233.69 -382.023 220.727C-388.765 216.7 -395.632 212.076 -403.593 210.871L-403.239 210.7C-408.588 220.511 -407.328 232.305 -406.394 242.934C-402.192 275.637 -391.448 307.14 -378.832 337.459C-360.061 380.159 -335.559 420.386 -318.997 464.149C-317.697 468.077 -314.956 475.814 -313.649 479.731C-301.868 513.399 -284.683 545.021 -264.726 574.645C-196.208 675.292 -97.3121 750.609 -11.5393 836.392C58.0116 902.711 138.347 982.657 244.604 976.556L244.613 976.545ZM244.659 977.425C138.07 983.645 57.4455 903.628 -12.3552 837.164C-98.2225 751.346 -197.322 676.138 -265.722 575.271C-285.693 545.553 -302.883 513.826 -314.638 480.057C-315.924 476.223 -318.689 468.316 -319.966 464.472C-336.44 420.772 -360.859 380.571 -379.623 337.773C-392.242 307.368 -402.974 275.805 -407.14 243.01C-408.084 232.238 -409.332 220.317 -403.841 210.321L-403.72 210.119L-403.487 210.15C-395.311 211.391 -388.459 216.056 -381.609 220.142C-374.86 224.428 -368.313 228.975 -361.774 233.534C-310.59 269.927 -253.562 306.367 -187.376 307.142C-154.971 308.571 -122.428 307.693 -90.0314 304.745C-55.9364 301.487 -26.6624 297.322 6.57052 308.152C29.8171 315.04 51.3123 326.046 74.1626 333.853C96.9459 341.68 121.044 346.027 145.292 347.042C194.066 349.405 242.414 336.404 291.206 338.543C307.45 339.304 323.712 341.789 338.861 347.425C397.19 372.361 445.091 424.295 465.939 482.694C481.233 526.855 484.358 578.538 460.825 621.284C437.955 663.792 396.15 693.908 375.939 737.946C354.633 781.15 346.004 828.373 333.09 874.124C321.194 917.452 297.689 973.55 244.678 977.422L244.659 977.425Z" fill="white" fill-opacity="0.32"/>
<path d="M255.844 992.49C286.164 989.777 311.077 969.192 325.771 943.965C336.436 925.94 342.84 905.999 348.339 886.052C361.329 838.056 368.467 788.273 389.352 742.444C409.653 696.078 452.99 663.906 476.065 619.136C499.542 574.402 496.927 521.003 480.571 475.166C459.126 415.426 408.016 360.004 348.245 334.671C332.598 328.764 315.718 326.121 298.842 325.666C264.865 324.779 231.314 331.95 197.652 336.113C163.943 340.581 129.275 340.215 96.6615 331.062C55.7325 320.559 21.9025 292.542 -20.2696 285.651C-36.9613 282.382 -54.0069 284.564 -70.7786 286.992C-112.827 293.343 -155.385 296.129 -197.771 294.484C-276.58 294.315 -339.146 241.997 -395.18 194.965C-398.432 192.382 -401.709 189.832 -405.152 187.519C-408.567 185.328 -412.119 182.801 -416.281 182.546L-415.933 182.27C-418.212 193.655 -417.721 205.433 -416.79 216.882C-413.661 251.487 -405.895 285.571 -395.252 318.565C-380.142 362.359 -358.876 403.74 -341.881 446.819C-335.745 462.334 -329.503 479.99 -322.466 495.135C-310.37 521.401 -295.805 546.574 -279.524 570.539C-210.823 670.635 -115.431 752.435 -28.6538 837.326C46.5335 908.67 140.69 1004.01 255.821 992.474L255.844 992.49ZM255.929 993.363C140.45 1005.04 45.974 909.624 -29.4433 838.132C-116.34 753.173 -211.877 671.539 -280.485 571.188C-296.766 547.156 -311.33 521.915 -323.426 495.581C-330.485 480.421 -336.664 462.726 -342.802 447.193C-359.739 404.104 -380.966 362.65 -396.048 318.842C-406.682 285.769 -414.414 251.642 -417.523 216.966C-418.446 205.438 -418.928 193.583 -416.61 182.124L-416.562 181.837L-416.253 181.838C-411.813 182.089 -408.239 184.699 -404.708 186.94C-401.24 189.288 -397.963 191.838 -394.7 194.429C-338.819 241.436 -276.417 293.789 -197.713 293.849C-163.857 295.005 -129.846 293.766 -96.1192 289.633C-79.2221 287.734 -62.4778 284.558 -45.4976 283.379C-28.4737 282.366 -11.4854 285.763 4.39703 291.229C36.1863 302.263 64.0646 321.82 96.9457 330.199C129.46 339.281 163.953 339.606 197.57 335.123C231.258 330.928 264.861 323.71 298.924 324.574C315.897 325.014 332.897 327.658 348.719 333.605C408.879 359.013 460.27 414.671 481.906 474.7C498.364 520.83 500.902 574.664 477.237 619.688C454.121 664.512 410.826 696.562 390.461 742.899C369.565 788.653 362.414 838.342 349.388 886.295C343.853 906.267 337.387 926.333 326.664 944.434C311.843 969.825 286.518 990.724 255.959 993.368L255.929 993.363Z" fill="white" fill-opacity="0.32"/>
<path d="M267.078 1008.43C327.485 999.376 351.548 950.656 364.582 898.158C377.628 847.901 382.787 795.509 403.652 747.253C424.349 698.658 469.205 664.538 492.533 617.405C547.187 504.178 466.614 367.058 357.617 320.662C324.567 308 287.87 310.874 253.218 316.737C199.353 326.486 149.059 337.966 95.6392 320.481C61.6706 310.493 34.1458 287.465 1.47501 274.822C-14.7517 268.705 -32.4285 264.525 -50.0607 266.772C-67.6154 269.074 -84.9699 273.194 -102.542 275.585C-133.215 280.189 -164.429 281.631 -195.346 281.476L-208.614 281.201C-281.27 281.338 -341.673 235.048 -390.388 187.832C-399.757 178.866 -408.719 169.482 -418.322 160.755C-420.75 158.625 -423.17 156.485 -426.014 154.921C-426.935 154.446 -427.998 154.023 -428.891 154.228C-428.23 176.708 -426.727 203.209 -423.651 226.895C-419.99 257.108 -414.959 287.321 -406.667 316.608C-401.299 334.038 -395.012 351.298 -388.692 368.38C-378.194 396.71 -366.558 425.366 -355.299 453.463C-348.578 470.358 -340.845 487.115 -332.491 503.286C-269.345 622.417 -168.833 716.538 -73.6611 811.211C-30.0443 853.724 14.3098 897.578 62.57 935.08C119.533 979.801 190.455 1019.42 267.106 1008.41L267.078 1008.43ZM267.194 1009.31C190.257 1020.4 119.063 980.75 61.865 935.911C13.5467 898.417 -30.8825 854.595 -74.5353 812.04C-169.885 717.374 -270.482 623.141 -333.503 503.779C-341.851 487.579 -349.573 470.761 -356.288 453.837C-367.491 425.712 -379.127 397.056 -389.589 368.701C-395.893 351.598 -402.196 334.292 -407.536 316.848C-415.806 287.509 -420.823 257.256 -424.461 226.992C-427.285 202.64 -429.459 178.178 -429.368 153.598C-427.967 153.267 -426.757 153.745 -425.695 154.303C-422.796 155.907 -420.318 158.106 -417.868 160.252C-408.263 168.998 -399.3 178.382 -389.948 187.369C-341.399 234.534 -281.14 280.788 -208.625 280.567L-195.368 280.835C-164.474 280.973 -133.304 279.499 -102.683 274.875C-85.086 272.451 -67.8007 268.332 -50.1794 266.01C-32.4528 263.73 -14.5848 267.928 1.74442 274.067C34.5039 286.707 61.9155 309.637 95.9036 319.622C149.071 337.011 199.404 325.457 253.02 315.698C287.822 309.774 324.763 306.872 358.029 319.587C390.693 332.665 418.628 354.888 442.742 379.531C502.085 440.708 533.335 537.466 493.659 617.925C470.301 665.12 425.467 699.121 404.715 747.677C383.85 795.865 378.669 848.174 365.576 898.38C352.417 951.11 328.138 1000.2 267.172 1009.29L267.194 1009.31Z" fill="white" fill-opacity="0.32"/>
<path d="M278.306 1024.37C316.058 1018.12 347.303 995.859 363.236 961.497C386.585 911.749 389.314 856.454 401.638 803.883C409.35 768.221 422.694 734.115 445.767 704.86C489.128 648.847 526.209 611.79 526.668 537.049C527.264 455.426 479.334 380.165 413.795 333.009C399.146 322.5 383.655 312.755 366.508 306.471C313.587 286.421 256.882 306.22 203.298 315.818C157.872 324.811 109.207 320.83 69.0054 298.395C45.0129 285.458 23.7308 267.908 -1.6202 257.394C-15.2189 251.813 -29.9512 247.87 -44.8957 248.271C-57.5539 249.348 -69.8192 253.108 -82.2292 255.716C-127.406 266.037 -173.988 268.809 -220.055 267.892C-276.388 268.368 -326.844 238.372 -367.037 202.943C-387.41 185.031 -405.792 165.098 -423.33 144.554L-432.142 134.327C-434.782 131.453 -437.202 128.314 -440.383 126.014C-440.82 125.735 -441.381 125.552 -441.47 125.758L-441.397 125.506C-435.474 175.684 -434.507 228.83 -426.849 278.731C-418.563 329.285 -400.97 377.912 -382.653 425.57C-363.971 473.288 -339.444 518.574 -310.386 560.889C-221.077 686.408 -109.39 795.511 2.9096 901.334C78.055 966.572 169.29 1042.14 278.331 1024.34L278.306 1024.37ZM278.44 1025.24C169.072 1043.18 77.5414 967.555 2.11974 902.187C-110.326 796.31 -222.211 687.353 -311.416 561.587C-340.476 519.186 -365.001 473.784 -383.643 425.993C-401.935 378.234 -419.469 329.598 -427.733 278.925C-435.357 228.981 -436.274 175.836 -442.148 125.661L-442.167 125.529L-442.075 125.409C-441.805 125.011 -441.215 124.978 -440.903 125.083C-440.012 125.35 -439.318 125.984 -438.633 126.542C-434.351 130.376 -426.783 139.659 -422.83 144.169C-405.334 164.7 -386.99 184.639 -366.659 202.538C-326.618 237.942 -276.269 267.81 -220.061 267.297L-206.226 267.452C-169.359 267.498 -132.316 265.034 -95.9772 257.905C-82.3325 255.27 -68.9328 251.682 -55.3043 248.934C-52.0935 248.381 -48.2015 247.741 -44.9424 247.527C-10.6689 246.828 18.9749 265.966 46.1196 283.632C77.4411 304.667 109.407 317.508 148.082 319.258C203.856 321.881 257.006 297.79 312.58 296.72C340.438 295.847 368.141 303.129 391.709 317.113C469.431 362.985 528.651 445.703 527.994 537.037C527.47 612.086 490.4 649.286 446.735 705.538C435.816 720.186 425.851 735.62 418.857 752.357C404.771 785.914 398.721 821.839 392.472 857.265C379.036 929.948 367.326 1009.51 278.449 1025.23L278.44 1025.24Z" fill="white" fill-opacity="0.32"/>
<path d="M-454.127 97.2062C-441.199 160.38 -447.704 225.902 -438.338 289.559C-429.892 336.978 -416.595 383.591 -397.796 427.92C-353.275 531.601 -281.428 620.779 -206.426 704.737C-120.025 800.362 -32.5923 896.692 72.2285 973.698C124.16 1011.27 184.625 1044.44 251.599 1044.23C284.326 1043.86 318.377 1036.33 345.442 1017.14C407.458 972.523 401.654 858.852 420.606 791.32C428.102 759.587 443.339 730.034 463.528 703.986C493.118 665.176 527.423 626.964 538.032 578.63C561.71 482.006 509.594 383.615 432.995 325.641C369.573 276.249 324.308 276.605 247.548 296.243C197.811 309.082 150.571 319.389 100.914 301.928C53.4077 287.261 21.8883 243.377 -27.302 232.653C-33.2424 231.378 -39.4192 230.456 -45.5339 230.526C-55.8225 231.23 -65.6127 235.012 -75.5997 237.623C-131.556 253.547 -190.492 256.977 -248.097 254.132C-256.337 253.317 -264.488 251.874 -272.481 249.867C-350.369 229.198 -407.829 164.103 -451.467 101.431L-453.22 98.9896C-453.668 98.4144 -454.091 97.8066 -454.598 97.3077C-454.805 97.3109 -453.686 96.6955 -454.111 97.1844L-454.127 97.2062ZM-455.016 97.43C-455.693 97.4673 -454.335 96.0265 -454.006 96.6681C-453.012 97.6014 -451.568 99.8212 -450.716 100.94C-424.479 138.936 -394.632 175.048 -358.143 204.103C-326.685 229.108 -289.229 249.127 -247.985 253.114C-190.526 255.905 -131.72 252.467 -75.9213 236.547C-65.937 233.918 -56.0029 230.104 -45.5871 229.39C-39.3647 229.313 -33.0856 230.257 -27.0458 231.536C22.3272 242.222 53.8191 286.053 101.334 300.777C150.624 318.092 197.871 307.841 247.26 295.124C324.249 275.499 369.945 275.182 433.609 324.882C510.384 383.118 562.604 481.887 538.728 578.792C528.052 627.213 493.68 665.512 464.005 704.345C430.661 746.794 419.592 787.534 411.736 839.078C402.054 896.136 397.533 980.635 345.92 1017.79C318.716 1037.11 284.505 1044.69 251.595 1045.1C184.43 1045.36 123.703 1012.16 71.6057 974.534C-33.3423 897.539 -120.999 801.301 -207.436 705.634C-282.454 621.562 -354.345 532.218 -398.829 428.378C-417.633 383.944 -430.914 337.242 -439.331 289.741C-448.675 226.1 -442.131 160.572 -454.996 97.427L-455.007 97.4191L-455.016 97.43Z" fill="white" fill-opacity="0.32"/>
<path d="M-120.385 630.663C-73.0299 736.634 38.1272 818.315 142.002 868.618C158.907 876.229 176.996 882.426 195.891 882.727C200.584 882.797 205.284 882.497 209.947 881.796C212.165 881.415 214.582 881.245 216.511 880.026C218.381 878.883 219.556 876.849 219.788 874.699L219.797 874.552L219.89 874.431C240.568 844.185 245.323 807.495 254.787 773.22C257.978 761.68 261.564 750.185 266.704 739.246C271.919 728.343 278.623 718.171 286.05 708.604C336.579 644.794 417.054 602.729 373.147 511.269C365.362 495.343 355.675 480.264 344.342 466.574C287.209 401.075 189.547 402.372 107.544 403.141C71.0326 403.748 34.4496 405.462 -2.04097 403.903C-62.8163 399.734 -121.507 383.176 -180.568 370.323C-208.216 364.526 -306.694 339.693 -325.026 358.064C-332.951 373.168 -296.533 416.813 -286.711 429.757C-250.355 474.994 -210.535 517.405 -172.333 561.124C-158.067 577.572 -143.684 594.001 -130.976 611.679C-126.908 617.656 -122.523 623.69 -120.365 630.66L-120.385 630.663ZM-121.249 630.962C-123.384 624.075 -127.709 618.119 -131.75 612.196C-144.441 594.564 -158.81 578.162 -173.073 561.733C-211.315 518.02 -251.16 475.642 -287.557 430.393C-298.196 416.401 -334.454 373.109 -325.992 357.505C-325.459 356.627 -324.754 355.84 -323.947 355.21C-312.69 349.727 -299.856 350.15 -287.754 350.54C-227.054 355.303 -168.643 372.903 -109.449 385.222C-74.004 392.81 -38.3424 400.521 -1.94339 402.627C34.5057 404.105 71.038 402.525 107.549 401.986C189.752 401.361 287.722 400.337 344.856 466.125C356.211 479.9 365.873 495.012 373.666 510.995C417.805 602.758 337.539 644.956 286.788 709.101C279.397 718.643 272.758 728.776 267.602 739.602C262.518 750.445 258.959 761.926 255.793 773.434C246.368 807.838 241.64 844.65 220.906 875.06L221.007 874.792C220.757 877.236 219.371 879.681 217.171 881.029C215.044 882.396 212.527 882.562 210.117 882.992C205.387 883.713 200.617 884.014 195.857 883.964C171.908 883.571 149.591 874.129 128.734 863.811C27.3793 810.771 -73.6122 736.113 -121.241 630.951L-121.249 630.962Z" fill="white" fill-opacity="0.32"/>
<path d="M-97.2027 634.742C-61.5077 730.163 30.2061 790.463 117.504 838.097C142.353 851.413 169.605 863.756 198.872 861.733C200.657 861.546 203.453 861.367 205.165 861.026C208.027 860.4 210.865 858.339 211.691 855.568C228.691 832.117 234.298 803.561 240.881 776.234C255.27 706.714 291.173 686.026 334.444 635.586C342.228 625.959 349.643 615.505 354.653 604.244C356.082 601.497 357.429 597.255 358.552 594.39C359.252 591.58 360.745 587.034 361.105 584.15C365.617 561.536 359.513 538.419 349.569 518.199C345.327 509.074 339.246 499.465 333.716 490.986C299.261 439.25 232.497 425.416 172.546 423.459C129.308 421.736 85.9873 424.768 42.7032 425.812C28.267 426.103 13.7857 426.498 -0.601902 425.304C-14.9756 424.137 -29.2391 422.059 -43.4114 419.636C-85.9115 412.278 -127.721 401.897 -169.908 393.295C-197.963 387.889 -226.377 381.781 -255.2 382.501C-262.777 382.901 -270.508 383.84 -277.296 387.248L-278.442 387.911C-279.241 388.345 -279.905 388.807 -280.461 389.398C-281.56 390.608 -282.09 392.225 -282.192 393.893C-282.383 397.257 -281.339 400.654 -280.141 403.871C-277.618 410.344 -274.053 416.404 -270.339 422.315C-266.587 428.22 -262.556 433.966 -258.389 439.622C-216.172 495.838 -166.494 546.21 -121.451 600.221C-116.966 605.644 -112.543 611.125 -108.328 616.764C-104.192 622.483 -99.8284 628.109 -97.1942 634.731L-97.2027 634.742ZM-98.079 635.052C-100.636 628.622 -105.027 622.942 -109.108 617.331C-113.329 611.722 -117.74 606.249 -122.233 600.838C-167.353 546.857 -217.101 496.555 -259.398 440.331C-266.695 429.918 -290.414 399.175 -281.416 388.593C-261.191 372.052 -194.905 387.369 -169.668 392.101C-113.43 403.397 -57.9412 418.989 -0.541889 424.391C28.2013 426.414 57.1334 424.356 85.9563 423.568C171.452 421.392 280.569 413.807 334.299 490.585C339.851 499.08 345.975 508.702 350.241 517.862C360.258 538.168 366.456 561.523 361.926 584.296C361.538 587.194 360.118 591.757 359.367 594.634C358.23 597.54 356.841 601.837 355.442 604.589C350.413 615.921 343 626.463 335.158 636.167C291.959 686.692 256.28 707.2 242.059 776.499C235.654 803.527 229.56 833.51 213.001 855.911C211.616 860.449 206.653 862.692 202.183 862.778L198.947 863.102C169.434 865.153 141.808 852.644 116.865 839.226C29.4023 791.423 -62.419 730.79 -98.0678 635.06L-98.079 635.052Z" fill="white" fill-opacity="0.32"/>
<path d="M-74.1134 638.873C-51.4482 700.709 0.861463 746.245 55.054 782.496C68.7887 791.632 82.908 800.222 97.2566 808.446C118.772 820.587 140.45 833.307 164.988 838.795C173.098 840.58 181.421 841.61 189.767 841.526C193.74 841.393 198.148 841.554 201.355 838.8C203.083 837.589 203.976 835.882 204.993 834.128C206.004 832.335 207.167 830.616 208.058 828.754C219.908 806.797 224.794 782.402 231.637 758.758C236.196 742.931 241.635 727.134 250.385 712.905C258.998 698.628 270.045 685.907 281.419 673.643C303.651 649.447 330.121 625.633 337.755 593.018C343.821 566.677 334.811 539.982 322.252 517.098C319.349 512.194 315.999 506.13 312.643 501.499C308.001 494.835 302.604 488.589 296.543 483.117C278.485 466.312 254.752 456.178 230.518 450.566C164.728 436.146 96.489 446.77 29.5972 448.445C-20.9937 447.994 -70.0893 435.121 -119.326 426.052C-148.286 420.941 -204.432 408.207 -230.851 418.359C-232.706 419.102 -234.66 420.065 -236.124 421.294C-237.509 422.579 -237.968 424.579 -237.904 426.509C-237.266 434.5 -232.699 441.761 -228.716 448.605C-220.122 462.449 -209.995 475.337 -199.753 488.051C-163.738 532.583 -123.527 573.75 -87.574 618.34C-82.6363 624.891 -77.3126 631.256 -74.1106 638.892L-74.1134 638.873ZM-74.9858 639.173C-78.0961 631.756 -83.4811 625.313 -88.3323 618.876C-93.383 612.449 -98.6424 606.182 -103.947 599.95C-141.18 556.395 -181.134 514.984 -215.821 469.4C-222.566 459.911 -246.185 429.858 -236.994 420.414C-231.814 416.401 -225.207 415.055 -218.915 414.117C-210.483 413.016 -201.998 413.135 -193.61 413.629C-118.312 419.415 -46.2488 446.291 29.6182 447.535C46.4084 447.148 63.2158 446.104 80.017 445.159C138.297 442.264 199.281 437.248 254.663 457.176C268.194 462.279 281.314 469.434 292.388 478.531C293.901 479.615 295.654 481.402 297.034 482.612C302.449 487.365 307.094 492.918 311.51 498.565C319.118 509.305 325.83 521.168 330.973 533.243C342.889 559.724 344.751 590.032 329.725 616.308C313.564 645.623 286.447 667.09 265.758 693.145C255.246 706.027 246.356 720.19 240.534 735.627C227.498 769.218 224.311 806.354 204.536 837.483C201.916 841.033 197.276 842.916 192.913 842.787L189.741 842.895C172.766 843.048 156.174 838.765 140.763 832.401C133.043 829.251 125.583 825.534 118.275 821.618C96.4216 809.782 74.9672 797.223 54.3387 783.473C0.0429323 747.063 -52.3695 701.231 -75.0055 639.176L-74.9858 639.173Z" fill="white" fill-opacity="0.32"/>
<path d="M-55.2682 642.995C-35.2943 697.591 10.5605 737.424 57.6787 769.432C69.6298 777.491 81.8876 785.12 94.3299 792.436C106.758 799.726 119.214 807.07 132.708 812.335C146.107 817.634 160.374 821.057 174.904 821.476C179.129 821.754 183.971 820.352 186.655 816.931L188.239 814.718C206.804 789.09 207.453 756.434 218.322 727.705C220.873 720.853 224.059 714.223 227.688 707.847C251.819 664.334 306.866 633.905 305.219 579.644C304.723 565.277 300.736 551.134 295.02 538.101C293.063 533.479 290.353 528.015 288.023 523.568C286.923 521.236 285.204 518.884 283.982 516.601C283.641 516.009 282.928 514.888 282.515 514.346C265.105 488.013 236.779 474.015 206.066 467.969C166.653 460.427 125.998 463.338 86.0422 466.706C71.4712 467.976 56.8939 469.413 42.3011 470.598C27.645 471.685 12.993 470.679 -1.51525 469.142C-45.0448 464.356 -87.591 454.203 -130.987 448.809C-146.872 447.008 -182.831 442.877 -194.196 454.491C-199.368 465.705 -171.513 499.618 -164.217 509.352C-137.494 543.178 -108.293 575.013 -80.5723 608.038C-75.9614 613.547 -71.4006 619.122 -67.0011 624.82C-62.7048 630.633 -58.0888 636.248 -55.2682 642.995ZM-56.1259 643.315C-58.8672 636.781 -63.5438 631.087 -67.7521 625.407C-72.1488 619.728 -76.7152 614.183 -81.3261 608.674C-113.625 570.096 -148.376 533.476 -178.155 492.852C-183.941 484.339 -199.74 463.406 -195.277 453.927C-184.243 441.436 -146.301 445.775 -130.81 447.53C-87.4109 453.011 -44.8487 463.279 -1.39712 468.146C13.0666 469.719 27.6631 470.753 42.2248 469.7C56.8035 468.556 71.3836 467.139 85.9683 465.896C125.943 462.593 166.72 459.771 206.174 467.395C237.105 473.583 265.449 487.421 283.085 513.954C283.465 514.471 284.252 515.629 284.563 516.217C285.841 518.471 287.473 520.915 288.648 523.216C290.922 527.691 293.788 533.131 295.701 537.79C301.477 550.901 305.527 565.142 306.045 579.593C307.869 634.052 252.821 664.754 228.664 708.369C225.088 714.698 221.943 721.272 219.415 728.072C208.598 756.89 207.968 789.68 189.336 815.465L187.727 817.712C184.83 821.528 179.425 823.087 174.826 822.828C160.124 822.387 145.711 818.908 132.181 813.532C118.622 808.218 106.108 800.815 93.6545 793.49C81.2069 786.136 68.9463 778.487 56.9814 770.402C9.76405 738.253 -36.2029 698.114 -56.1286 643.296L-56.1259 643.315Z" fill="white" fill-opacity="0.32"/>
<path d="M-32.1868 647.127C-16.8239 688.122 15.9552 719.624 50.7909 745.099C68.3389 758.017 86.8991 769.55 105.698 780.653C115.109 786.178 124.48 791.847 134.532 796.044C144.568 800.264 155.544 802.873 166.53 801.641C170.32 802.641 175.151 800.964 178.161 798.393C196.775 779.52 197.471 752.137 204.479 728.229C207.205 718.651 211.204 709.414 216.254 700.769C231.041 674.587 255.046 654.912 270.613 629.316C281.199 612.363 284.881 591.9 281.16 572.622C277.953 555.876 271.823 539.467 262.545 525.151C231.533 480.508 169.456 480.79 119.594 485.12C94.6822 487.031 70.0542 492.031 45.1564 493.97C30.1613 494.56 15.1938 493.428 0.342612 491.845C-29.3513 488.668 -58.6923 483.315 -88.3869 480.275C-103.166 478.848 -118.15 477.669 -132.958 479.812C-138.456 480.709 -143.849 482.286 -148.618 485.112C-150.005 486.105 -150.617 487.713 -150.545 489.44C-149.91 496.667 -145.585 503.045 -141.953 509.176C-131.359 525.625 -118.786 540.753 -106.294 555.806C-87.4511 578.383 -67.7385 600.265 -49.0552 622.985C-43.0344 630.718 -36.2625 638.118 -32.1477 647.121L-32.1868 647.127ZM-33.0492 647.448C-37.1202 638.615 -43.8894 631.234 -49.8466 623.599C-56.0549 616.023 -62.4337 608.581 -68.832 601.142C-88.0244 578.846 -107.594 556.843 -125.769 533.7C-134.66 521.995 -144.031 510.355 -149.991 496.798C-151.522 492.921 -153.457 487.163 -149.299 484.099C-144.337 481.155 -138.754 479.508 -133.15 478.585C-118.209 476.402 -103.099 477.551 -88.2387 478.985C-58.5334 482.102 -29.1816 487.532 0.484056 490.791C15.2989 492.4 30.2021 493.572 45.1329 493.021C70.011 491.154 94.6248 486.195 119.536 484.353C169.598 480.1 231.9 480.067 263.11 524.768C272.485 539.138 278.654 555.609 281.938 572.481C285.731 591.915 282.05 612.672 271.396 629.783C255.88 655.45 231.946 675.143 217.221 701.335C212.241 709.91 208.3 719.069 205.623 728.562C198.667 752.629 197.95 780.29 179.134 799.361C176.103 802.348 169.461 804.12 166.518 803.047C155.318 804.244 144.144 801.577 133.989 797.288C123.806 793.012 114.418 787.297 105.016 781.761C86.2115 770.62 67.6347 759.04 50.0676 746.056C15.1269 720.401 -17.6904 688.699 -33.0465 647.467L-33.0492 647.448Z" fill="white" fill-opacity="0.32"/>
<path d="M-9.17694 651.278C11.2903 702.866 60.8412 734.522 106.443 762.87C121.653 772.199 137.917 782.955 156.718 781.789L156.897 781.78L157.079 781.861C158.754 782.628 160.949 782.454 162.952 782.123C165.443 781.627 168.007 780.852 170.04 779.311C170.669 778.71 172.842 776.732 173.544 776.08C177.992 771.555 181.411 766.075 183.78 760.264C188.437 748.358 189.565 735.637 192.633 723.287C194.542 714.989 197.68 706.925 201.637 699.336C209.414 684.041 220.413 670.654 231.237 657.384C241.962 644.199 252.576 630.289 257.263 613.875C262.043 597.544 260.311 580.192 255.665 564.191C251.332 548.054 243.482 532.482 230.019 522.081C191.061 491.9 127.069 504.145 81.376 513.366C64.6461 517.618 47.3321 518.494 30.2227 517.678C-3.94195 516.433 -37.7038 510.256 -71.9545 510.546C-83.008 510.942 -94.5627 511.702 -104.351 517.324C-107.655 519.26 -105.878 523.834 -104.865 526.689C-100.791 536.318 -94.3773 544.734 -88.2074 553.128C-72.9675 573.19 -56.2993 592.121 -39.9381 611.297C-34.4713 617.687 -29.0326 624.091 -23.7095 630.603C-18.5386 637.246 -12.7375 643.584 -9.14883 651.264L-9.17694 651.278ZM-10.0346 651.609C-13.5904 644.092 -19.3914 637.754 -24.4955 631.229C-29.8159 624.737 -35.2827 618.347 -40.758 611.968C-57.1558 592.817 -73.8941 573.887 -89.1734 553.832C-94.2148 547.109 -99.18 540.285 -103.272 532.881C-105.444 528.646 -109.959 520.587 -105.74 516.799C-105.495 516.613 -105.244 516.396 -105.008 516.29L-103.562 515.502L-102.115 514.714C-100.65 514.061 -99.0555 513.399 -97.5462 512.917C-89.2513 510.184 -80.5428 509.541 -71.982 509.276C-37.6439 508.894 -3.92236 515.284 30.2643 516.615C47.3314 517.486 64.4739 516.677 81.181 512.478C127.371 503.288 190.918 491.309 230.403 521.597C243.983 532.049 251.984 547.764 256.379 563.981C264.027 589.353 262.531 614.478 247.294 637.314C233.343 658.795 214.089 676.765 202.651 699.83C198.738 707.383 195.692 715.304 193.805 723.549C189.999 738.869 189.298 755.563 180.598 769.372C178.28 772.893 175.355 776.46 172.129 779.233C169.79 781.681 166.42 782.858 163.192 783.478C161.03 783.814 158.707 784.087 156.459 783.093L156.809 783.157C137.627 784.323 121.142 773.424 105.781 763.951C60.0539 735.424 10.4005 703.469 -10.0149 651.606L-10.0346 651.609Z" fill="white" fill-opacity="0.32"/>
<path d="M13.7188 655.458C24.6662 682.764 47.2094 703.266 70.5458 720.529C82.3583 729.213 94.6818 737.201 107.014 745.246C118.977 753.2 131.781 762.009 146.864 761.903L147.057 761.903C149.881 763.586 153.979 762.852 157.169 762.089C158.85 761.629 160.537 761.069 161.896 760.132L164.017 758.539C164.722 758.001 165.454 757.5 166.055 756.869C177.339 747.196 178.217 731.767 180.825 718.331C183.232 704.258 189.815 691.172 197.486 679.102C208.804 661 224.478 645.38 232.582 625.487C238.032 612.347 239.069 597.91 237.274 584.04C234.759 562.666 227.368 542.405 207.339 531.569C172.274 513.156 123.539 526.151 87.3297 537.814C78.7173 540.502 69.6699 541.754 60.7332 542.421C24.948 545.396 -10.9927 538.16 -46.4325 544.606C-49.9038 545.392 -53.3477 546.374 -56.5701 547.849L-57.7947 548.377L-58.9546 549.005L-60.1145 549.632C-62.1089 550.459 -62.2475 552.651 -61.7335 554.722C-59.8873 561.365 -55.6358 567.218 -51.7919 572.915C-47.7609 578.642 -43.4711 584.19 -39.0874 589.684C-25.9391 606.146 -11.9227 621.925 1.4362 638.225C5.8024 643.811 10.5731 649.026 13.6989 655.461L13.7188 655.458ZM12.8438 655.803C9.81587 649.631 4.93261 644.264 0.670487 638.841C-3.78442 633.419 -8.34171 628.061 -12.8877 622.712C-26.5113 606.623 -40.499 590.759 -52.762 573.593C-56.0394 568.535 -66.686 554.643 -61.9591 549.43C-61.3923 548.914 -60.1958 548.331 -59.5078 547.955C-58.8993 547.592 -57.7028 547.009 -57.0381 546.756C-47.0168 542.396 -35.921 541.424 -25.2017 540.879C3.47798 539.761 32.0375 543.352 60.6902 541.393C69.5814 540.762 78.5123 539.548 87.0733 536.927C123.554 525.322 172.411 512.468 207.659 531.101C227.923 542.02 235.452 562.329 238.054 583.959C239.905 597.939 238.882 612.544 233.42 625.815C225.358 645.792 209.697 661.509 198.418 679.674C190.851 691.679 184.401 704.565 182.042 718.55C179.551 731.441 178.766 745.939 168.954 755.982C166.985 757.999 164.95 759.619 162.665 761.267C158.636 764.012 149.648 765.394 146.826 763.293C131.383 763.365 118.356 754.411 106.251 746.32C93.9791 738.265 81.6274 730.223 69.8067 721.48C46.3748 704.043 23.7816 683.329 12.8352 655.814L12.8438 655.803Z" fill="white" fill-opacity="0.32"/>
<path d="M36.4087 659.692C50.0102 690.619 80.8316 708.461 107.144 727.944C115.925 734.48 125.426 741.308 136.84 742.03C138.91 743.707 142.236 743.547 144.885 743.341C153.471 742.706 161.265 737.175 165.065 729.691C169.67 719.212 168.799 707.158 172.985 696.411C181.286 674.706 196.649 656.7 207.626 636.437C212.831 626.198 216.043 615.047 216.898 603.695C218.394 581.435 215.687 555.159 192.082 545.554C170.369 537.018 145.696 543.11 124.319 550.81C113.24 554.599 103.331 561.13 92.0791 564.492C69.5244 571.145 45.8669 570.835 22.7345 573.014C9.17311 574.385 -4.95339 575.913 -16.9405 582.763C-18.4189 584.119 -17.5357 586.37 -16.9863 588.078C-14.3381 594.601 -10.0127 600.302 -5.8919 606.014C0.899725 615.112 8.17694 623.854 15.4656 632.605C22.5546 641.547 30.6926 649.743 36.3945 659.664L36.4087 659.692ZM35.5229 660.06C29.8717 650.353 21.6621 642.087 14.6558 633.293C7.34974 624.566 0.0321786 615.83 -6.82273 606.721C-11.0009 600.968 -15.4092 595.189 -18.1172 588.534C-18.8609 586.544 -19.7546 583.559 -17.6669 581.847C-5.46817 574.743 8.98099 573.165 22.6491 571.748C47.1273 569.322 72.3507 570.217 95.9119 562.15C105.455 558.577 114.313 553.286 123.998 549.993C140.411 543.993 157.941 539.705 175.432 541.004C212.043 544.266 219.782 572.116 217.69 603.754C217.104 609.405 216.402 615.254 214.726 620.699L213.518 624.854C212.946 626.282 211.739 629.57 211.199 630.932C205.762 643.553 197.483 654.789 190.152 666.322C183.967 676.047 178.337 686.19 174.12 696.79C172.205 702.151 171.202 707.765 170.369 713.413C169.263 721.078 168.128 729.643 162.576 735.805C160.095 738.524 156.936 740.752 153.691 742.511C148.854 744.604 140.583 746.3 136.079 743.215L136.484 743.385C124.838 742.547 115.187 735.611 106.33 728.965C79.9573 709.351 49.0512 691.199 35.5229 660.06Z" fill="white" fill-opacity="0.32"/>
<path d="M58.7568 663.917C67.1315 680.67 83.509 692.004 97.8355 703.7C106.444 710.734 114.32 719.91 125.916 721.988C127.315 723.52 129.832 723.764 131.898 723.881C139.035 724.081 146.487 722.089 152.067 717.54C158.649 711.638 157.145 702.326 159.204 694.536C160.592 687.904 163.807 681.866 166.789 675.824C173.674 661.731 182.515 648.634 189.041 634.391C194.524 622.194 197.762 609.136 199.416 596.001C203.62 559.173 175.601 553.452 145.752 566.35C137.412 569.902 129.556 574.561 122.423 580.084C117.992 583.567 113.304 587.027 108.188 589.547C97.0327 595.383 84.7056 598.679 72.5342 601.581C57.1166 605.284 41.3337 608.345 27.1965 615.731C25.6843 616.842 27.0528 619.579 27.6523 621.057C33.3726 632.325 43.0785 643.091 50.837 653.157C53.2802 656.397 56.8112 660.386 58.7657 663.905L58.7568 663.917ZM57.8864 664.336C55.9834 661.106 52.4276 656.793 50.0274 653.782C42.1485 643.611 32.4328 633.001 26.5601 621.551C25.6951 619.538 24.1701 616.292 26.618 614.7C28.6873 613.72 30.7073 612.613 32.8204 611.718C45.4376 606.286 58.9898 603.513 72.2347 600.283C84.3473 597.338 96.5374 594.269 107.642 588.522C112.752 586.034 117.274 582.743 121.767 579.25C129.014 573.72 136.957 569.069 145.403 565.52C175.81 552.61 204.096 558.578 200.13 596.047C198.544 609.285 195.346 622.407 189.892 634.734C183.425 649.019 174.657 662.187 167.849 676.299C164.941 682.269 161.797 688.285 160.472 694.764C158.516 702.683 159.899 712.485 153.023 718.554C147.131 723.438 139.358 725.468 131.805 725.239C129.403 725.06 126.856 724.831 125.03 723.046L125.407 723.245C113.644 721.029 105.671 711.764 97.0124 704.604C82.6308 692.742 66.257 681.285 57.8807 664.296L57.8864 664.336Z" fill="white" fill-opacity="0.32"/>
<path d="M71.0468 649.616C70.6361 649.771 70.4863 650.355 70.5563 651.003C70.8153 653.056 71.8447 654.987 72.797 656.843C76.6096 664.216 82.8816 671.326 88.1931 677.77C95.6694 686.17 101.916 697.391 113.133 701.585C113.922 702.69 115.411 703.248 116.954 703.565C121.522 704.397 126.323 703.825 130.939 703.122C135.282 702.299 140.376 701.207 143.531 698.042C146.358 694.362 144.956 689.345 146.317 685.029C146.968 681.963 148.328 679.048 149.641 676.267C154.624 664.972 159.558 653.567 165.247 642.552C169.379 634.553 174.337 625.968 178.881 618.133C183.512 610.211 188.057 601.685 188.712 592.569C189.68 576.297 172.32 577.433 161.06 582.903C152.478 586.847 144.934 592.859 139.092 600.066C120.571 627.106 101.094 637.136 71.0562 649.604L71.0468 649.616ZM70.631 648.721C88.0987 641.255 105.826 633.433 119.775 620.578C124.402 616.371 128.577 611.71 132.346 606.778C135.934 601.735 139.814 596.49 144.568 592.392C151.704 586.09 160.263 580.971 169.781 578.928C180.683 576.471 190.503 580.677 189.518 592.622C188.472 604.915 180.721 615.859 174.901 626.576C168.76 637.381 163.128 648.4 158.16 659.724C155.648 665.386 153.214 671.046 150.764 676.751C149.457 679.573 148.206 682.324 147.596 685.288C146.288 689.66 147.778 694.983 144.633 698.922C138.787 704.781 124.566 706.214 116.628 704.939C115.036 704.587 113.293 704.034 112.108 702.572L112.429 702.801C103.776 699.54 98.1453 692.102 92.7558 685.267C90.0423 681.873 84.4941 675.092 81.7618 671.723C79.2221 668.77 65.7074 651.316 70.665 648.727L70.631 648.721Z" fill="white" fill-opacity="0.32"/>
<path d="M513.704 121.501C382.854 270.144 440.966 310.918 562.707 426.932C582.907 448.429 593.517 477.619 592.178 506.652C591.8 523.299 586.584 539.47 580.669 555.102C555.233 620.85 506.418 675.955 479.062 740.885C459.925 785.086 455.689 831.27 476.136 875.137C501.418 932.368 558.719 963.368 622.792 968.067C650.516 970.969 678.227 965.582 705.699 961.414C719.378 959.012 733.197 956.656 746.306 952.032C784.934 936.282 818.741 911.37 851.921 887.1C895.6 853.78 937.899 817.975 972.713 776.13C989.663 754.896 1005.98 733.19 1021.34 710.908C1070.72 639.32 1112 556.688 1106.73 470.071C1102.38 390.325 1058.29 318.766 1004.38 260.356C1000.17 256.045 994.998 249.793 990.521 245.888C980.528 236.946 970.182 228.297 959.658 219.897C878.383 156.416 774.728 93.4822 668.373 78.7507C612.47 71.3137 555.209 82.0842 513.679 121.467L513.704 121.501ZM513.028 120.911C554.744 81.2693 612.336 70.3241 668.568 77.7886C775.232 92.4831 878.953 155.379 960.52 218.979C973.505 229.673 987.119 239.947 998.549 252.173L1005.4 259.529C1059.47 318.107 1103.54 390.035 1107.81 470.015C1112.96 556.852 1071.55 639.599 1021.99 711.31C1006.61 733.606 990.261 755.297 973.26 776.529C938.326 818.392 896.002 854.163 852.328 887.587C819.1 911.941 785.297 936.891 746.57 952.723C733.395 957.386 719.568 959.753 705.832 962.183C685.179 965.287 664.479 969.322 643.566 969.676C574.237 970.393 506.706 941.603 477.273 880.054C461.528 848.915 457.371 812.629 465.442 778.535C485.022 696.684 549.326 632.653 579.356 554.674C585.236 539.153 590.423 523.131 590.821 506.616C592.167 477.909 581.703 449.024 561.749 427.75C439.64 311.377 381.643 269.787 512.994 120.887L513.028 120.911Z" fill="white" fill-opacity="0.32"/>
<path d="M745.169 919.042C757.535 914.955 769.059 908.675 780.28 902.285C813.919 882.659 845.276 859.601 875.33 835.313C910.106 806.755 943.79 776.32 970.594 740.754C1005.58 695.566 1038.02 648.026 1060.44 596.162C1142.11 406.706 1017.89 265.456 857.761 168.299C768.145 115.053 619.412 51.1671 530.174 140.183C525.055 145.716 518.671 152.025 513.845 157.745C478.948 196.604 445.113 249.918 465.895 301.096C475.176 324.102 492.383 343.091 509.545 361.152C527.038 379.173 545.373 396.462 563.212 414.2C567.244 418.294 572.698 423.514 576.484 427.607C600.799 452.934 607.572 490.209 599.211 523.436C575.822 614.977 483.722 692.156 482.742 787.927C482.617 812.583 489.947 836.902 502.365 858.255C530.926 908.797 589.19 932.812 648.478 933.422C668.092 933.844 687.484 929.966 706.844 927.133C719.707 924.965 732.67 922.782 745.172 919.06L745.169 919.042ZM745.447 919.895C732.871 923.667 719.917 925.838 706.988 928.045C687.582 930.914 668.091 934.807 648.448 934.399C602.857 933.826 556.169 919.736 524.325 888.47C506.294 870.75 493.667 848.39 486.679 824.664C476.934 791.762 481.926 756.171 494.668 724.204C509.722 686.22 532.945 651.71 554.159 616.596C573.48 584.307 593.004 550.823 599.886 514.131C605.119 483.799 597.453 451.076 575.68 428.315C571.737 424.062 566.471 419.007 562.448 414.902C544.637 397.15 526.33 379.847 508.84 361.778C491.633 343.617 474.396 324.556 465.083 301.41C444.249 249.942 478.193 196.399 513.319 157.362C518.222 151.611 524.469 145.274 529.688 139.794C619.537 50.5611 768.043 114.221 858.229 167.594C1018.78 264.658 1143.78 406.859 1061.69 596.629C1039.17 648.594 1006.65 696.176 971.572 741.435C944.674 777.054 910.884 807.534 876.028 836.104C845.894 860.404 814.485 883.46 780.764 903.079C769.446 909.502 757.922 915.783 745.427 919.898L745.447 919.895Z" fill="white" fill-opacity="0.32"/>
<path d="M753.94 884.587C776.62 876.437 796.767 862.799 816.62 849.649C865.545 815.497 912.306 777.352 950.564 732.269C988.721 683.71 1024.45 632.279 1046.86 575.399C1047.67 573.396 1049.24 569.302 1049.91 567.245C1052.74 559.375 1055.66 550.44 1057.73 542.406C1090.41 423.103 1032.38 323.468 941.473 246.923C878.572 195.147 806.572 150.646 725.987 128.092C668.358 112.367 601.9 112.253 556.705 156.698C546.329 166.97 536.151 178.399 527.062 189.711C499.865 223.445 477.42 267.663 494.673 309.472C503.33 330.83 519.201 348.466 535.005 365.293C551.098 382.085 567.982 398.18 584.402 414.712C592.583 422.914 601.219 431.25 607.038 441.198C607.827 442.718 609.463 445.459 610.182 446.912C610.661 448.045 612.367 451.615 612.889 452.828C613.488 454.299 614.607 457.524 615.164 458.915C615.493 460.128 616.643 463.849 617.003 465.135C617.362 466.623 618.083 470.042 618.402 471.469C618.629 472.746 619.15 476.533 619.388 477.886C619.566 480.365 620.014 484.067 620.006 486.517C620.916 505.362 615.544 523.893 608.653 541.526C573.023 631.658 473.769 720.314 525.764 820.841C550.744 872.261 606.641 897.676 664.781 898.111C682.871 898.474 700.746 894.858 718.598 892.19C730.447 890.15 742.416 888.092 753.929 884.579L753.94 884.587ZM754.225 885.431C742.636 888.974 730.687 891.03 718.772 893.109C700.875 895.812 682.889 899.435 664.771 899.086C606.229 898.674 549.972 873.159 524.733 821.354C472.452 720.32 571.443 631.531 607.513 541.148C614.376 523.665 619.747 505.269 618.87 486.583C618.872 484.162 618.467 480.474 618.274 478.035C618.115 476.738 617.475 472.969 617.308 471.683C616.961 470.202 616.276 466.893 615.928 465.413C615.633 464.291 614.438 460.403 614.118 459.246C613.524 457.678 612.458 454.744 611.881 453.221C607.985 444.082 602.657 435.275 595.804 427.904C575.829 406.809 554.371 386.942 534.331 365.886C518.474 348.971 502.58 331.251 493.904 309.762C475.465 264.681 502.214 217.711 532.179 182.45C538.582 174.619 546.143 166.806 553.093 159.393C598.868 111.969 666.205 111.159 726.214 127.422C806.963 149.922 879.094 194.413 942.167 246.191C1033.35 322.675 1091.95 423.188 1059.09 542.702C1056.99 550.76 1054.08 559.742 1051.21 567.636C1050.56 569.72 1048.96 573.79 1048.14 575.823C1025.6 632.886 989.794 684.329 951.507 732.965C913.115 778.107 866.252 816.248 817.189 850.421C797.242 863.624 777.033 877.252 754.214 885.423L754.225 885.431Z" fill="white" fill-opacity="0.32"/>
<path d="M757.4 850.13C778.417 842.525 797.095 829.923 815.483 817.712C860.82 786.054 904.113 750.658 939.417 708.837C984.185 651.252 1027.11 588.085 1041.37 517.161C1062.75 413.41 1007.62 325.432 929.022 259.67C870.659 211.796 803.873 170.626 729.096 149.795C684.469 137.78 632.19 135.028 591.6 161.173C582.215 167.085 573.839 174.4 566.394 182.434C558.973 190.145 551.309 198.772 544.648 207.084C519.29 238.603 498.842 278.903 515.037 317.859C523.153 337.57 537.892 353.861 552.536 369.443C571.071 388.919 591.094 407.282 609.526 426.89C616.751 434.917 622.155 444.503 625.699 454.532C659.669 555.669 500.222 656.536 536.455 769.605C554.726 829.809 609.998 862.391 674.744 862.813C691.527 863.116 708.116 859.788 724.661 857.279C735.659 855.363 746.746 853.424 757.412 850.138L757.4 850.13ZM757.684 850.957C746.933 854.284 735.866 856.22 724.8 858.156C708.208 860.701 691.508 864.036 674.697 863.747C624.127 863.634 573.029 842.117 548.356 799.107C531.615 771.135 525.672 738.544 533.006 706.6C542.391 664.422 567.321 627.396 589.122 590.079C605.447 562.141 621.724 533.321 627.969 501.802C631.645 480.934 628.756 458.861 618.029 440.46C614.804 434.775 610.54 429.363 606.007 424.561C580.88 398.315 553.121 374.144 530.625 345.686C499.608 307.02 503.057 267.589 529.693 226.619C537.025 215.299 545.676 204.293 554.728 194.144C565.619 181.942 577.044 169.485 591.266 160.702C669.524 111.778 780.5 160.993 849.811 202.285C960.137 268.466 1067.64 374.09 1044.19 509.485C1031.68 583.824 986.941 649.689 940.373 709.523C904.926 751.415 861.531 786.807 816.074 818.483C797.589 830.728 778.843 843.349 757.695 850.964L757.684 850.957Z" fill="white" fill-opacity="0.32"/>
<path d="M760.881 815.654C775.344 810.314 788.722 802.398 801.555 794.187C840.082 769.114 876.015 740.125 908.031 707.825C916.837 698.911 925.291 689.277 932.939 679.453C967.704 633.692 1000.19 584.78 1015.96 530.219C1049.67 415.115 984.596 321.724 893.014 253.84C832.899 209.726 750.066 162.798 671.346 163.484C641.772 163.806 611.802 173.792 590.297 193.78C584.205 199.539 577.5 206.638 571.946 212.926C544.115 243.999 518.191 285.495 535.362 326.228C542.959 344.29 556.553 359.229 570.038 373.565C587.102 391.553 605.536 408.339 622.422 426.509C638.808 445.536 644.124 471.592 639.705 495.819C619.787 589.461 508.668 669.032 568.886 768.703C593.239 810.062 643.352 829.354 692.384 827.364C705.245 826.683 717.979 824.301 730.701 822.316C740.839 820.535 751.055 818.724 760.87 815.646L760.881 815.654ZM761.17 816.501C751.277 819.609 741.061 821.421 730.865 823.23C718.107 825.239 705.312 827.631 692.422 828.325C642.998 830.365 592.499 810.956 567.893 769.268C507.316 668.616 618.103 589.646 638.552 495.643C642.964 471.718 637.764 445.964 621.614 427.152C604.795 409.011 586.395 392.181 569.369 374.168C555.841 359.752 542.216 344.74 534.599 326.545C517.381 285.491 543.38 243.81 571.479 212.532C577.06 206.298 583.763 199.112 589.898 193.366C611.572 173.343 641.657 163.233 671.38 162.879C750.233 162.047 833.389 209.014 893.656 253.115C985.578 320.948 1051.27 415.194 1017.35 530.554C1001.46 585.287 968.829 634.307 933.949 680.124C926.264 689.972 917.752 699.635 908.909 708.573C876.776 740.91 840.779 769.889 802.121 794.972C789.199 803.207 775.738 811.183 761.19 816.498L761.17 816.501Z" fill="white" fill-opacity="0.32"/>
<path d="M764.381 781.199C777.603 776.279 789.823 769.047 801.57 761.537C821.236 748.899 839.909 734.839 857.793 720.044C877.41 703.711 896.217 686.354 912.761 667.222C942.899 629.805 969.957 589.396 987.737 545.524C1018.41 469.338 1004.73 395.561 952.045 333.098C910.363 282.654 848.636 239.969 787.716 212.015C738.585 190.427 676.778 172.348 625.289 199.688C612.775 206.325 602.669 216.082 593.319 226.211C583.93 236.346 575.079 246.992 567.697 258.505C552.566 281.139 544.59 309.424 555.706 334.619C562.88 350.979 575.188 364.653 587.55 377.719C600.059 390.801 613.202 403.353 625.946 416.274C630.719 421.02 635.735 426.088 639.32 431.661C651.441 449.532 654.289 472.169 649.547 492.992C634.917 553.359 584.719 601.233 573.129 662.416C566.357 697.55 579.444 734.587 605.398 759.682C630.189 783.321 666.651 793.335 701.719 792.059C713.465 791.412 725.172 789.239 736.794 787.398C746.061 785.744 755.415 784.049 764.381 781.199ZM764.68 782.036C755.627 784.928 746.293 786.621 736.957 788.295C725.278 790.163 713.582 792.344 701.746 793.014C666.387 794.343 629.617 784.269 604.593 760.451C578.349 735.139 565.114 697.725 571.908 662.249C583.395 600.926 633.512 553.064 648.369 492.77C653.09 472.222 650.336 449.871 638.401 432.215C634.868 426.712 629.848 421.625 625.179 416.951C612.476 404.023 599.35 391.45 586.844 378.319C574.439 365.172 562.1 351.425 554.906 334.932C543.743 309.483 551.757 280.969 567.079 258.161C574.507 246.612 583.387 235.952 592.826 225.8C602.244 215.651 612.414 205.836 625 199.198C676.683 171.703 738.724 189.689 788.085 211.301C849.164 239.212 911.115 281.95 952.956 332.42C1005.96 395.086 1020 469.391 989.026 545.943C971.11 590.009 943.968 630.411 913.697 667.907C897.075 687.07 878.191 704.457 858.513 720.799C840.568 735.604 821.835 749.673 802.125 762.297C790.321 769.836 777.994 777.113 764.689 782.025L764.68 782.036Z" fill="white" fill-opacity="0.32"/>
<path d="M772.681 746.745C780.464 743.736 788.094 739.816 795.191 735.54C816.74 722.516 836.8 707.287 855.935 691.186C873.39 676.349 890.12 660.611 904.812 643.254C907.185 640.564 910.199 636.378 912.492 633.564C935.632 602.086 956.949 568.919 970.777 532.837C988.518 487.495 989.67 436.235 969.444 392.14C934.501 312.803 829.203 238.56 743.515 214.861C711.709 206.462 675.083 204.193 645.301 221.071C630.499 229.249 619.347 242.019 608.605 254.445C591.05 275.275 575.207 301.387 579.656 328.69C581.58 341.619 588.466 353.179 596.421 363.508C611.463 382.636 629.664 399.198 646.555 416.822C663.493 432.583 670.968 455.008 668.108 477.542C666.868 487.584 663.721 497.399 660.135 506.939C633.374 574.625 569.043 635.537 615.304 709C635.691 742.602 676.646 758.565 716.73 756.737C727.25 756.144 737.66 754.158 748.06 752.455C756.337 750.937 764.686 749.349 772.69 746.734L772.681 746.745ZM772.986 747.574C764.907 750.239 756.567 751.816 748.213 753.366C737.785 755.082 727.297 757.099 716.737 757.698C676.261 759.576 634.92 743.496 614.283 709.581C567.693 635.409 631.746 574.627 658.953 506.554C662.211 498.064 664.96 489.32 666.53 480.413C669.535 461.688 665.635 441.737 653.858 426.54C652.593 424.816 651.358 423.437 649.97 421.916C637.394 408.618 624.162 395.866 611.627 382.494C596.64 366.274 580.711 348.301 578.399 325.827C575.131 290.609 600.926 260.277 624.943 235.733C655.843 204.184 703.389 203.186 743.681 214.175C818.057 234.582 900.743 290.448 945.751 350.036C987.445 404.31 997.119 469.093 972.022 533.232C958.076 569.488 936.688 602.656 913.445 634.198C911.183 637.085 908.063 641.181 905.71 643.936C890.949 661.312 874.144 677.101 856.618 691.939C837.423 708.049 817.291 723.279 795.671 736.304C788.534 740.586 780.824 744.586 772.964 747.558L772.986 747.574Z" fill="white" fill-opacity="0.32"/>
<path d="M776.203 712.272C783.164 709.542 789.988 706.014 796.345 702.195C815.63 690.491 833.566 676.833 850.629 662.361C867.574 647.79 883.923 632.391 897.591 614.965C919.657 585.584 939.469 554.132 952.117 520.145C973.536 463.342 964.248 405.454 927.178 357.704C885.673 303.773 814.422 255.526 746.532 236.528C707.374 226.147 665.222 228.034 636.896 260C633.357 263.612 628.944 268.447 625.684 272.338C599.102 303.809 587.911 335.901 615.582 369.651C629.085 386.722 645.292 401.603 660.382 417.384C707.522 465.517 653.533 528.174 632.301 576.796C615.608 612.705 613.224 645.223 634.872 679.154C653.606 708.977 689.957 723.103 726.061 721.43C735.486 720.867 744.845 719.075 754.146 717.516C761.582 716.129 769.056 714.649 776.192 712.264L776.203 712.272ZM776.513 713.122C769.26 715.545 761.785 717.025 754.323 718.445C744.953 720.024 735.577 721.838 726.091 722.411C689.603 724.141 652.863 709.897 633.877 679.761C611.982 645.556 614.308 612.569 631.109 576.341C651.965 527.901 706.193 466.028 659.606 418.075C644.551 402.251 628.344 387.301 614.844 370.181C587.042 336.099 598.218 303.688 625.143 271.961C628.383 268.141 632.851 263.19 636.416 259.614C664.952 227.606 707.305 225.465 746.726 235.875C814.829 254.783 886.377 303.082 928.119 357.075C965.465 404.95 975.13 463.513 953.399 520.578C940.611 554.741 920.739 586.202 898.539 615.662C884.794 633.119 868.349 648.571 851.332 663.143C834.188 677.628 816.201 691.283 796.823 702.991C790.416 706.827 783.52 710.425 776.493 713.125L776.513 713.122Z" fill="white" fill-opacity="0.32"/>
<path d="M779.777 677.819C814.445 663.232 863.976 620.641 886.532 591.522C920.538 545.365 950.792 490.013 940.685 432.957C933.386 389.105 903.688 352.041 869.365 323.382C826.406 288.007 747.477 240.003 687.765 257.012C685.482 257.802 682.87 258.485 680.694 259.504L676.117 261.506C673.926 262.498 671.741 264.027 669.588 265.131C668.237 265.949 664.897 268.483 663.508 269.394C638.036 291.74 608.652 326.066 624.565 359.843C629.994 371.286 638.717 380.936 647.377 390.302C656.171 399.658 665.336 408.704 674.264 417.982C683.271 427.365 688.559 439.69 689.54 452.383C692.2 513.562 617.199 567.814 645.764 632.622C659.771 668.964 694.842 687.955 735.523 686.164C750.368 684.68 765.57 682.292 779.809 677.824L779.777 677.819ZM780.1 678.662C773.697 680.877 767.083 682.223 760.481 683.509C752.174 684.97 743.9 686.524 735.477 687.13C694.443 689.003 658.782 669.758 644.608 633.058C615.72 567.476 691.12 512.244 688.356 452.49C687.438 440.014 682.266 427.906 673.448 418.671C664.56 409.388 655.412 400.319 646.633 390.922C637.951 381.471 629.199 371.766 623.762 360.197C607.76 326.032 637.288 291.479 663.111 268.964C665.471 267.35 668.882 264.727 671.447 263.445C676.349 260.532 682.099 258.139 687.593 256.48C747.554 239.247 826.833 287.219 870.074 322.67C904.682 351.423 934.601 388.64 942.053 432.754C952.248 488.562 923.227 542.791 890.523 588.304C877.919 605.367 862.378 620.34 846.139 634.33C825.836 651.109 804.934 668.143 780.132 678.667L780.1 678.662Z" fill="white" fill-opacity="0.32"/>
<path d="M783.395 643.358C804.661 634.159 822.818 619.322 840.156 604.735C857.401 589.806 873.265 573.27 885.056 554.222C916.893 506.255 935.448 452.792 909.298 399.586C894.829 370.032 870.48 345.736 843.473 325.77C812.846 303.708 778.41 284.059 739.719 277.296C724.128 274.917 707.306 275.151 692.59 281.455C689.767 282.384 686.524 284.476 683.89 285.829L683.007 286.432L681.243 287.657C680.617 288.074 679.191 289.082 678.595 289.485C676.167 291.586 673.649 293.572 671.418 295.86C651.744 314.445 631.361 342.163 644.941 368.283C649.837 378.058 657.311 386.458 664.836 394.565C672.421 402.713 680.406 410.496 688.016 418.679C695.395 427.153 699.524 437.956 700.136 448.933C700.863 502.922 639.273 548.776 666.316 605.228C679.163 636.398 709.428 652.448 744.917 650.88C757.86 649.445 771.033 647.425 783.406 643.366L783.395 643.358ZM783.742 644.203C778.177 646.185 772.448 647.414 766.698 648.576C758.063 650.105 749.329 651.963 740.536 651.93C706.297 652.299 677.51 635.589 665.167 605.683C649.23 573.077 663.743 541.645 679.043 511.17C688.503 491.451 699.669 470.97 698.954 449.019C698.385 438.262 694.37 427.658 687.171 419.326C679.652 411.188 671.667 403.336 664.101 395.166C653.024 383.004 640.854 369.604 639.805 352.823C638.657 330.316 654.985 310.984 670.954 295.436C673.196 293.156 675.762 291.133 678.21 289.03L679.103 288.416L680.888 287.188L682.672 285.96L683.565 285.346C686.175 283.907 689.538 281.984 692.342 280.921C707.162 274.532 724.123 274.238 739.85 276.607C778.712 283.316 813.314 302.94 844.101 325.008C871.314 345.012 895.84 369.361 910.477 399.047C937.058 452.81 918.399 506.358 886.149 554.819C874.252 573.932 858.26 590.536 840.912 605.48C823.375 620.156 805.26 634.917 783.727 644.176L783.742 644.203Z" fill="white" fill-opacity="0.32"/>
<path d="M785.5 608.905C810.288 597.311 842.795 566.934 858.35 544.586C880.94 510.246 899.166 468.874 890.298 427.884C879.371 375.427 828.407 333.818 781.61 311.168C757.399 300.003 726.34 291.148 701.609 306.741C693.887 311.974 687.519 319.06 681.599 326.157C653.144 361.86 670.315 381.019 696.078 409.107L700.705 414.204C712.191 425.929 716.082 443.502 712.136 459.371C703.809 500.908 670.425 534.12 691.311 577.873C701.939 603.224 725.236 616.533 753.055 615.681C763.983 614.655 775.114 612.625 785.48 608.908L785.5 608.905ZM785.841 609.745C775.276 613.563 764.156 615.601 753.03 616.657C724.804 617.563 701.094 604.059 690.241 578.337C669.097 534.187 702.276 500.808 710.991 459.151C714.921 443.602 711.184 426.402 699.966 414.854L695.358 409.754C686.26 399.445 676.443 389.506 670.165 377.143C658.507 354.691 674.18 331.382 690.532 315.35C734.546 267.973 821.539 327.48 854.801 362.433C872.215 380.651 886.468 402.682 891.596 427.604C900.737 468.948 882.174 510.67 859.334 545.247C851.323 556.774 841.566 567.054 831.314 576.696C817.441 589.26 803.014 601.77 785.824 609.768L785.841 609.745Z" fill="white" fill-opacity="0.32"/>
<path d="M789.11 574.441C810.001 564.054 833.691 541.089 846.781 522.043C860.314 500.09 871.351 475.362 871.953 449.591C873.194 396.279 828.118 356.033 783.779 332.915C761.803 321.884 731.023 312.949 710.222 331.778C696.392 344.258 681.432 363.221 689.759 382.1C692.267 387.953 696.064 393.187 700.083 398.175C704.113 403.172 708.412 407.957 712.684 412.776C721.747 422.154 725.946 435.861 723.76 448.776C720.878 474.466 704.143 497.524 704.747 523.691C704.897 530.077 706.258 536.387 708.631 542.301C711.135 550.02 714.912 557.373 720.244 563.524C730.834 576.087 748.26 581.64 764.752 580.185C772.981 579.049 781.381 577.526 789.122 574.449L789.11 574.441ZM789.476 575.287C781.563 578.451 773.214 579.976 764.838 581.165C748.022 582.72 730.18 577.06 719.342 564.264C713.87 557.995 710.013 550.514 707.452 542.683C705.105 536.876 703.611 530.205 703.461 523.748C702.7 497.415 719.482 474.32 722.562 448.649C724.749 435.965 720.757 422.707 711.903 413.428C700.134 399.27 682.296 383.65 687.506 363.259C690.776 350.458 700.218 340.218 709.791 331.343C714.733 326.911 720.721 323.642 727.123 321.855C766.55 311.775 821.518 351.241 845.598 379.101C873.136 409.939 880.976 448.624 865.41 487.641C860.774 499.789 854.778 511.604 847.77 522.653C840.359 533.533 831.255 543.19 821.57 552.143C811.737 560.918 801.479 569.528 789.441 575.262L789.476 575.287Z" fill="white" fill-opacity="0.32"/>
<path d="M792.851 539.98C801.789 535.443 809.557 528.788 816.741 521.926C823.861 514.911 830.527 507.352 835.723 498.895C840.732 490.374 844.635 481.143 847.553 471.777C857.101 442.241 849.806 412.883 829.534 389.994C811.093 368.551 770.876 338.34 740.399 344.116C735.478 345.07 730.827 347.279 726.943 350.382C719.367 356.692 711.974 364.228 708.883 373.631C703.783 388.729 716.298 401.317 725.16 412.022C731.831 419.386 735.602 429.397 735.043 439.352C734.906 459.145 724.085 477.637 725.029 497.438C725.244 502.316 726.275 507.099 727.996 511.644C729.811 518.125 732.531 524.397 736.583 529.781C749.68 547.384 773.405 548.261 792.851 539.98ZM793.253 540.827C773.366 549.4 749.108 548.462 735.624 530.489C731.437 524.972 728.657 518.567 726.786 511.992C725.114 507.643 723.936 502.413 723.73 497.524C722.616 477.564 733.558 459.106 733.868 439.348C734.455 429.592 730.869 419.931 724.389 412.65C715.414 401.738 702.854 388.759 708.151 373.426C711.355 363.853 718.821 356.315 726.555 349.941C730.54 346.803 735.27 344.49 740.271 343.503C771.075 337.513 811.655 367.699 830.418 389.267C843.501 404.096 852.551 422.836 853.137 442.774C853.641 462.653 846.725 482.203 836.775 499.51C831.467 508.066 824.71 515.649 817.51 522.697C810.18 529.633 802.376 536.262 793.256 540.847L793.253 540.827Z" fill="white" fill-opacity="0.32"/>
<path d="M796.909 505.494C808.912 498.56 818.598 487.639 825.058 475.71C834.074 457.332 835.166 435.156 825.793 416.998C815.364 395.983 787.138 371.96 763.49 366.574C756.783 365.156 749.3 365.496 743.357 369.266C735.042 374.683 726.144 383.464 727.897 393.89C729.73 404.188 738.922 410.938 743.164 420.152C752.899 439.183 740.87 461.085 747.591 480.617C748.69 485.934 750.325 491.192 753.107 495.848C761.98 511.161 781.582 513.132 796.933 505.512L796.909 505.494ZM797.378 506.352C781.492 514.347 761.22 512.265 751.984 496.468C749.148 491.809 747.303 485.992 746.299 481.04C739.216 461.415 751.61 439.701 742.168 420.584C737.936 411.285 728.811 404.472 727.055 394.025C725.313 383.218 734.44 374.361 743.01 368.738C755.753 360.946 771.468 367.034 783.148 373.5C806.63 387.373 829.273 408.283 833.317 435.957C835.088 449.605 832.353 463.753 826.212 476.245C819.513 488.409 809.736 499.302 797.4 506.349L797.378 506.352Z" fill="white" fill-opacity="0.32"/>
<path d="M747.8 394.377C742.173 403.802 752.996 411.343 758.888 419.07C761.923 423.353 763.775 428.109 765.021 432.876C766.26 437.677 766.843 442.469 767.879 447.164C768.079 450.837 768.502 454.516 769.636 458.093C773.016 469.909 784.754 476.742 796.909 474.014C804.307 472.366 810.29 467.453 813.66 461.279C820.516 448.449 815.121 431.881 805.339 419.778C797.905 410.517 788.307 402.711 778.583 395.575C775.284 393.278 771.789 391.17 768.044 389.845C760.729 387.027 751.736 388.564 747.8 394.377ZM746.84 393.794C751.007 387.474 760.541 385.794 768.384 388.711C772.345 390.076 775.952 392.236 779.349 394.553C789.345 401.716 798.98 409.533 806.393 419.144C816.195 431.629 821.477 448.626 814.293 461.617C807.983 474.677 787.511 481.61 774.423 468.633C768.522 462.635 766.774 454.529 766.321 447.141C765.269 442.993 764.616 437.546 763.504 433.06C762.337 428.433 760.56 423.796 757.716 419.706C751.62 411.699 740.767 403.863 746.85 393.783L746.84 393.794Z" fill="white" fill-opacity="0.32"/>
<path d="M-413.868 106.653C-328.141 207.129 -226.047 259.226 -90.256 215.005C-62.4314 206.835 -35.0369 208.713 -9.2277 220.724C17.9348 233.216 40.9597 252.383 66.897 266.788C99.9305 285.948 139.102 296.263 178.054 291.477C219.489 286.765 258.849 270.647 300.288 265.751C310.164 264.514 320.637 264.01 330.534 264.193C332.491 264.397 339.799 264.6 341.855 264.874C345.366 265.363 349.59 265.722 353.084 266.3C354.995 266.742 362.159 267.958 364.169 268.47C367.068 269.18 372.244 270.678 375.062 271.382C382.035 273.56 389.395 276.39 396.052 279.358C398.508 280.224 400.553 281.471 402.791 282.554C445.127 303.788 478.833 338.035 508.238 373.848C515.715 383.073 523.444 393.614 529.794 403.621C566.484 459.844 576.828 522.082 553.042 586.678C529.94 652.763 480.724 706.279 451.673 769.583C445.802 783.223 441.115 797.475 439.732 812.153C438.906 821.917 439.127 831.806 438.334 841.593C430.588 959.892 367.637 1099.87 236.841 1127.04C378.884 1096.42 437.852 938.91 438.874 812.095C441.305 787.407 452.21 764.249 464.277 742.535C493.729 690.62 532 642.768 551.986 586.343C575.579 522.066 565.258 460.199 528.682 404.295C522.299 394.332 514.663 383.824 507.173 374.64C476.305 337.218 440.693 301.164 395.459 280.489C388.838 277.429 381.51 274.825 374.632 272.545C372.062 271.784 366.262 270.345 363.819 269.64C361.653 269.219 355.167 267.897 352.814 267.477C349.323 266.85 345.209 266.571 341.665 266.058C317.98 263.897 293.866 266.861 270.594 272.088C238.545 279.053 207.095 289.867 174.335 292.886C136.381 296.679 98.4453 286.218 66.3475 267.595C40.3636 253.14 17.4517 234.003 -9.66368 221.494C-38.486 208.099 -66.7921 207.902 -97.3768 217.83C-229.656 259.022 -331.751 203.963 -413.909 106.641L-413.868 106.653Z" fill="white" fill-opacity="0.32"/>
<path d="M249.042 284.935C283.495 276.061 318.186 267.071 350.87 253.091C442.031 215.051 502.002 134.453 545.296 53.4504C553.971 37.7294 562.124 21.0598 569.921 4.92759C562.303 21.2006 554.411 37.91 545.934 53.7495C503.92 133.148 446.234 212.484 357.733 251.013C323.17 266.707 285.916 275.934 249.031 284.927L249.042 284.935Z" fill="white" fill-opacity="0.32"/>
<path d="M461.789 352.046C443.427 333.599 427.957 311.021 422.107 284.905C411.546 241.083 430.748 193.999 461.205 161.974C455.194 168.559 449.839 175.747 445.011 183.254C406.619 242.554 414.703 303.201 461.769 352.049L461.789 352.046Z" fill="white" fill-opacity="0.32"/>
<path d="M-11.6634 243.653C-53.1878 218.749 -52.9264 185.609 -25.6801 148.576C-0.73275 114.776 32.3706 86.3725 70.5092 66.7933C118.813 41.4514 172.088 26.413 225.251 14.5839C236.533 12.1049 247.842 8.39545 257.824 2.64135C321.4 -34.6575 304.913 -124.704 288.996 -181.592C280.806 -210.01 270.477 -237.857 257.849 -264.68C270.689 -237.948 281.265 -210.168 289.664 -181.791C305.912 -124.448 322.506 -34.1555 258.441 3.65627C248.321 9.51909 236.928 13.29 225.512 15.8285C172.491 27.7916 119.258 42.4829 71.0181 67.6983C32.969 87.1178 -0.087417 115.348 -25.0481 148.985C-52.1984 185.76 -52.9571 218.431 -11.6634 243.653Z" fill="white" fill-opacity="0.32"/>
<path d="M516.621 656.435C546.988 602.107 596.211 543.895 577.866 479.937C570.26 455.041 556.219 432.398 539.391 412.176C520.197 388.817 496.694 369.125 475.119 347.814C497.124 368.768 520.871 388.222 540.173 411.585C558.327 433.254 573.676 457.809 580.712 484.962C594.699 547.339 547.168 604.069 516.612 656.447L516.621 656.435Z" fill="white" fill-opacity="0.32"/>
<path d="M613.294 1007.98C505.621 963.855 412.034 867.261 453.116 744.005L454.027 744.268C449.891 757.976 446.838 771.98 445.464 786.157C434.086 892.289 523.446 968.914 613.651 1007.11L613.285 1007.99L613.294 1007.98Z" fill="white" fill-opacity="0.32"/>
</svg>
