<svg width="20" height="20" viewBox="0 0 20 20" fill="none" xmlns="http://www.w3.org/2000/svg">
<path d="M19 10C19 11.8569 18.4376 13.5825 17.4739 15.0157C15.858 17.4189 13.1136 19 10 19C6.88636 19 4.14202 17.4189 2.52609 15.0157C1.56237 13.5825 1 11.8569 1 10C1 5.02944 5.02944 1 10 1C14.9706 1 19 5.02944 19 10Z" fill="white" stroke="black" stroke-width="2"/>
<path d="M12 7C12 8.10457 11.1046 9 10 9C8.89543 9 8 8.10457 8 7C8 5.89543 8.89543 5 10 5C11.1046 5 12 5.89543 12 7Z" fill="white" stroke="black" stroke-width="2"/>
<path d="M13.0002 13H7.00016C5.18841 13 3.65799 14.2045 3.16602 15.8564C4.81663 17.7808 7.26602 19 10.0002 19C12.7343 19 15.1837 17.7808 16.8343 15.8564C16.3423 14.2045 14.8119 13 13.0002 13Z" fill="white" stroke="black" stroke-width="2"/>
</svg>
