<svg width="31" height="31" viewBox="0 0 31 31" fill="none" xmlns="http://www.w3.org/2000/svg">
<path d="M14.3957 3.01025C17.502 3.01025 20.0355 5.50031 20.0355 8.56595V14.5596H12.3969C11.8495 14.5596 11.4166 14.985 11.4166 15.5231C11.4166 16.0486 11.8495 16.4866 12.3969 16.4866H20.0355V22.4677C20.0355 25.5333 17.502 28.0359 14.3702 28.0359H8.17017C5.05106 28.0359 2.51758 25.5458 2.51758 22.4802V8.57846C2.51758 5.5003 5.06379 3.01025 8.1829 3.01025H14.3957ZM23.214 11.2064C23.5894 10.8185 24.2025 10.8185 24.5779 11.1939L28.2317 14.8351C28.4194 15.0228 28.5195 15.2606 28.5195 15.5233C28.5195 15.7736 28.4194 16.0238 28.2317 16.199L24.5779 19.8402C24.3902 20.0279 24.14 20.128 23.9022 20.128C23.652 20.128 23.4017 20.0279 23.214 19.8402C22.8386 19.4649 22.8386 18.8517 23.214 18.4763L25.2161 16.4868H20.0358V14.5598H25.2161L23.214 12.5703C22.8386 12.1949 22.8386 11.5818 23.214 11.2064Z" fill="white"/>
</svg>
