<svg width="26" height="26" viewBox="0 0 26 26" fill="none" xmlns="http://www.w3.org/2000/svg">
<path d="M12.5378 0C19.6451 0 25.0256 5.8272 25.0256 12.494C25.0256 20.226 18.7192 25.0256 12.5128 25.0256C10.4607 25.0256 8.18338 24.4742 6.35651 23.3965C5.71836 23.008 5.18031 22.7198 4.4921 22.9454L1.96451 23.6973C1.32636 23.8978 0.750769 23.3965 0.938461 22.7198L1.77682 19.9127C1.91446 19.5243 1.88944 19.1107 1.68923 18.7849C0.613128 16.8049 0 14.6369 0 12.5316C0 5.93999 5.2679 0 12.5378 0ZM18.2562 10.9401C17.3678 10.9401 16.6546 11.6544 16.6546 12.5441C16.6546 13.4214 17.3678 14.1482 18.2562 14.1482C19.1446 14.1482 19.8578 13.4214 19.8578 12.5441C19.8578 11.6544 19.1446 10.9401 18.2562 10.9401ZM12.4878 10.9401C11.6119 10.9276 10.8862 11.6544 10.8862 12.5316C10.8862 13.4214 11.5994 14.1357 12.4878 14.1482C13.3762 14.1482 14.0894 13.4214 14.0894 12.5441C14.0894 11.6544 13.3762 10.9401 12.4878 10.9401ZM6.71938 10.9401C5.83097 10.9401 5.11774 11.6544 5.11774 12.5441C5.11774 13.4214 5.84349 14.1482 6.71938 14.1482C7.60779 14.1357 8.32102 13.4214 8.32102 12.5441C8.32102 11.6544 7.60779 10.9401 6.71938 10.9401Z" fill="#EFF2F4"/>
</svg>
