<svg width="60" height="57" viewBox="0 0 60 57" fill="none" xmlns="http://www.w3.org/2000/svg">
<path d="M59.2886 1.44882C58.8334 1.04283 58.2358 0.843391 57.6312 0.914618L19.2179 5.18824C18.1367 5.30932 17.3186 6.22104 17.3186 7.3108V41.1151C15.5331 40.0325 13.3279 39.3629 10.9164 39.3629C5.03352 39.3629 0.246074 43.195 0.246074 47.9102C0.246074 52.6254 5.03352 56.4574 10.9164 56.4574C16.7993 56.4574 21.5868 52.6254 21.5868 47.9102V22.0405L55.7319 18.2441V36.8415C53.9464 35.7589 51.7411 35.0893 49.3297 35.0893C43.4468 35.0893 38.6593 38.9214 38.6593 43.6366C38.6593 48.3518 43.4468 52.1838 49.3297 52.1838C55.2126 52.1838 60 48.3518 60 43.6366V3.03718C60 2.42463 59.7439 1.84769 59.2886 1.4417V1.44882ZM10.9093 52.1838C7.43789 52.1838 4.5071 50.225 4.5071 47.9102C4.5071 45.5953 7.43789 43.6366 10.9093 43.6366C14.3807 43.6366 17.3115 45.5953 17.3115 47.9102C17.3115 50.225 14.3807 52.1838 10.9093 52.1838ZM49.3225 47.9102C45.8511 47.9102 42.9203 45.9514 42.9203 43.6366C42.9203 41.3217 45.8511 39.3629 49.3225 39.3629C52.794 39.3629 55.7248 41.3217 55.7248 43.6366C55.7248 45.9514 52.794 47.9102 49.3225 47.9102ZM55.7248 13.9492L21.5796 17.7456V9.22681L55.7248 5.43041V13.9492Z" fill="#626262"/>
</svg>
