<svg width="69" height="60" viewBox="0 0 69 60" fill="none" xmlns="http://www.w3.org/2000/svg">
<path d="M61.888 8.54724H14.9385C10.2435 8.54724 8.53628 12.3793 8.53628 14.9577V53.4202C8.53628 58.1212 12.3634 59.8307 14.9385 59.8307H61.888C66.583 59.8307 68.2902 55.9987 68.2902 53.4202V14.9577C68.2902 10.2567 64.4631 8.54724 61.888 8.54724ZM12.8044 14.9862C12.8329 14.0032 13.217 12.8209 14.9385 12.8209H61.8595C62.8483 12.8493 64.0221 13.234 64.0221 14.9577V29.9153C57.5487 29.9153 54.3832 33.7616 51.5876 37.152C49.0125 40.2717 46.9851 42.7362 42.6814 42.7362C40.1916 42.7362 38.4773 41.447 36.4926 39.9583C34.2234 38.256 31.6554 36.3258 27.7429 36.3258C23.8304 36.3258 21.2624 38.256 18.9932 39.9583C17.0085 41.447 15.2942 42.7362 12.8044 42.7362V14.9862ZM64.0221 53.3918C63.9936 54.3818 63.6095 55.5571 61.888 55.5571H14.9669C13.9853 55.5286 12.8044 55.1439 12.8044 53.4202V47.0098C16.7169 47.0098 19.2849 45.0796 21.5541 43.3772C23.5388 41.8886 25.2532 40.5994 27.7429 40.5994C30.2326 40.5994 31.947 41.8886 33.9317 43.3772C36.2009 45.0796 38.7689 47.0098 42.6814 47.0098C48.9982 47.0098 52.1211 43.2134 54.8811 39.8657C57.3922 36.8172 59.5619 34.189 64.0221 34.189V53.3918ZM51.2177 4.27362H6.40221C4.68072 4.27362 4.29659 5.44886 4.26814 6.43892V42.7362C4.26814 43.9186 3.31492 44.873 2.13407 44.873C0.953218 44.873 0 43.9186 0 42.7362V6.41043C0 3.83201 1.70726 0 6.40221 0H51.2177C52.3985 0 53.3517 0.954442 53.3517 2.13681C53.3517 3.31918 52.3985 4.27362 51.2177 4.27362ZM29.877 23.5049C29.877 19.972 27.0031 17.0945 23.4748 17.0945C19.9464 17.0945 17.0726 19.972 17.0726 23.5049C17.0726 27.0378 19.9464 29.9153 23.4748 29.9153C27.0031 29.9153 29.877 27.0378 29.877 23.5049ZM21.3407 23.5049C21.3407 22.3297 22.301 21.3681 23.4748 21.3681C24.6485 21.3681 25.6088 22.3297 25.6088 23.5049C25.6088 24.6802 24.6485 25.6417 23.4748 25.6417C22.301 25.6417 21.3407 24.6802 21.3407 23.5049Z" fill="#626262"/>
</svg>
