<svg width="26" height="26" viewBox="0 0 26 26" fill="none" xmlns="http://www.w3.org/2000/svg">
<path d="M18.3504 0.0129323C20.1504 -0.0995667 21.9254 0.525428 23.2629 1.75042C24.4879 3.0879 25.1129 4.86289 25.0129 6.67537V18.3503C25.1254 20.1628 24.4879 21.9377 23.2754 23.2752C21.9379 24.5002 20.1504 25.1252 18.3504 25.0127H6.67543C4.86293 25.1252 3.08793 24.5002 1.75043 23.2752C0.525432 21.9377 -0.0995675 20.1628 0.0129324 18.3503V6.67537C-0.0995675 4.86289 0.525432 3.0879 1.75043 1.75042C3.08793 0.525428 4.86293 -0.0995667 6.67543 0.0129323H18.3504ZM18.0254 5.72538C17.2504 4.95039 16.0004 4.95039 15.2254 5.72538L14.3879 6.57537C14.2629 6.70037 14.2629 6.91287 14.3879 7.03787C14.3879 7.03787 14.4125 7.06225 14.4561 7.10567L14.7636 7.41145C14.9414 7.5884 15.1634 7.80939 15.3864 8.03161L16.1422 8.78713C16.3 8.94557 16.4046 9.05174 16.4129 9.06285C16.5504 9.21285 16.6379 9.41285 16.6379 9.63785C16.6379 10.0878 16.2754 10.4628 15.8129 10.4628C15.6004 10.4628 15.4004 10.3753 15.2629 10.2378L13.1754 8.16286C13.0754 8.06286 12.9004 8.06286 12.8004 8.16286L6.83793 14.1253C6.42543 14.5378 6.18793 15.0878 6.17543 15.6753L6.10043 18.6378C6.10043 18.8003 6.15043 18.9503 6.26293 19.0628C6.37543 19.1753 6.52543 19.2378 6.68793 19.2378H9.62542C10.2254 19.2378 10.8004 19.0003 11.2379 18.5753L19.6504 10.1378C20.4129 9.36285 20.4129 8.11286 19.6504 7.35037L18.0254 5.72538Z" fill="white"/>
</svg>
