<svg width="34" height="23" viewBox="0 0 34 23" fill="none" xmlns="http://www.w3.org/2000/svg">
<path fill-rule="evenodd" clip-rule="evenodd" d="M26.9762 20.062C29.9598 18.1433 32.3452 15.4028 33.8546 12.1607C33.9502 11.9517 34 11.7238 34 11.4933C34 11.2627 33.9502 11.0348 33.8546 10.8258C32.3425 7.58711 29.9565 4.84998 26.9729 2.93399C23.9893 1.018 20.5315 0 17.0013 0C13.4712 0 10.0127 1.01732 7.02977 2.93399C4.04613 4.84998 1.65949 7.58711 0.148086 10.8258C0.0504688 11.0348 0 11.2627 0 11.4933C0 11.7238 0.0504688 11.9524 0.148086 12.1607C1.65684 15.4028 4.04215 18.1433 7.02645 20.062C10.0094 21.9813 13.4692 23 17.0013 23C20.5335 23 23.9932 21.9813 26.9769 20.062H26.9762ZM9.01332 5.40483C11.4305 3.93648 14.193 3.15714 17.0093 3.14972V3.13287C19.8243 3.14366 22.5848 3.92637 24.998 5.39808C27.4118 6.8698 29.3888 8.97523 30.7209 11.4933C29.3967 14.0207 27.4198 16.1342 25.0026 17.6087C22.5854 19.0831 19.8189 19.8617 16.9987 19.8617C14.1784 19.8617 11.4119 19.0831 8.99473 17.6087C6.57754 16.1342 4.60063 14.0207 3.27648 11.4933C4.61391 8.97658 6.59547 6.87317 9.01266 5.40415L9.01332 5.40483ZM13.4904 16.8286C14.529 17.5338 15.7502 17.9107 17 17.9114C18.6754 17.9107 20.2825 17.2345 21.4678 16.0318C22.6532 14.8291 23.3199 13.1982 23.3212 11.4966C23.3212 10.2278 22.9507 8.98804 22.2567 7.93296C21.5628 6.87789 20.576 6.05607 19.4218 5.57067C18.2677 5.08527 16.9973 4.95785 15.7715 5.20527C14.5456 5.45269 13.42 6.06281 12.5362 6.96014C11.6523 7.85678 11.0507 8.9995 10.8063 10.244C10.5619 11.4885 10.6868 12.7776 11.1642 13.9499C11.6417 15.1223 12.4512 16.1241 13.4898 16.8293L13.4904 16.8286ZM15.2104 8.78579C15.7396 8.42578 16.3625 8.23364 16.9993 8.23297V8.22623C17.8546 8.2269 18.6754 8.57275 19.2797 9.1876C19.884 9.80244 20.224 10.635 20.224 11.504C20.224 12.1506 20.0354 12.7829 19.6815 13.3209C19.3275 13.8589 18.8248 14.2783 18.2358 14.5257C17.6475 14.7731 17 14.8385 16.3751 14.7124C15.7502 14.5864 15.1765 14.2756 14.7256 13.8185C14.2747 13.3614 13.9679 12.7789 13.843 12.1445C13.7182 11.5101 13.782 10.8528 14.025 10.2548C14.268 9.65682 14.6811 9.1458 15.2104 8.78646V8.78579Z" fill="white"/>
</svg>
