<svg width="60" height="52" viewBox="0 0 60 52" fill="none" xmlns="http://www.w3.org/2000/svg">
<path d="M53.3517 0.726379H6.40221C1.70726 0.726379 0 4.55839 0 7.13681V45.5994C0 48.1778 1.70726 52.0098 6.40221 52.0098H53.3517C55.9268 52.0098 59.7539 50.3004 59.7539 45.5994V7.13681C59.7539 2.43583 55.9268 0.726379 53.3517 0.726379ZM55.4858 7.13681V13.5472H46.6721L52.3629 5H53.3304C54.3192 5.02849 55.4929 5.41312 55.4929 7.13681H55.4858ZM36.0017 13.5472L41.6926 5H47.2341L41.5432 13.5472H36.0017ZM25.3314 13.5472L31.0222 5H36.5637L30.8729 13.5472H25.3314ZM14.6611 13.5472L20.3519 5H25.8934L20.2025 13.5472H14.6611ZM6.40221 5H15.2159L9.52506 13.5472H4.26814V7.16531C4.29659 6.18237 4.68072 5 6.40221 5ZM55.4858 45.5994C55.4858 47.316 54.3192 47.7077 53.3375 47.7362H6.40221C4.68072 47.7362 4.29659 46.5609 4.26814 45.5994V17.8209H55.4858V45.5994ZM36.2792 39.189H49.0836C50.2644 39.189 51.2177 40.1434 51.2177 41.3258C51.2177 42.5081 50.2644 43.4626 49.0836 43.4626H36.2792C35.0983 43.4626 34.1451 42.5081 34.1451 41.3258C34.1451 40.1434 35.0983 39.189 36.2792 39.189Z" fill="#626262"/>
</svg>
